<svg width="144" height="84" viewBox="0 0 144 84" fill="none" xmlns="http://www.w3.org/2000/svg">
<path d="M41.9993 8.40137C38.69 8.40137 35.4131 9.05318 32.3557 10.3196C29.2983 11.586 26.5203 13.4422 24.1802 15.7823C21.8402 18.1223 19.984 20.9003 18.7176 23.9577C17.4511 27.0151 16.7993 30.2921 16.7993 33.6014C16.7993 36.9107 17.4511 40.1876 18.7176 43.245C19.984 46.3024 21.8402 49.0804 24.1802 51.4205C26.5203 53.7605 29.2983 55.6167 32.3557 56.8831C35.4131 58.1495 38.69 58.8014 41.9993 58.8014C43.0046 58.8014 44.0069 58.7412 45.0009 58.622C43.9389 63.3477 42.1946 66.9945 41.0005 69.1137C40.9088 69.19 40.8222 69.2617 40.7409 69.3285C40.4566 69.562 40.2371 69.7365 40.0932 69.8492C40.0213 69.9055 39.9684 69.9464 39.9357 69.9714L39.9021 69.997L39.8985 69.9997C38.3545 71.1601 38.0409 73.3531 39.2 74.8986C40.3598 76.445 42.5536 76.7584 44.1 75.5986L42.101 72.9333C44.1 75.5986 44.099 75.5994 44.1 75.5986L44.1045 75.5952L44.1111 75.5903L44.1304 75.5757L44.1928 75.5281C44.2449 75.4882 44.3177 75.432 44.4099 75.3598C44.5941 75.2154 44.8559 75.0071 45.1841 74.7375C45.8402 74.1986 46.7635 73.4134 47.865 72.4037C50.0639 70.388 52.9953 67.4572 55.933 63.7851C61.7512 56.5123 67.9 45.9467 67.9 33.5986C67.9 32.7528 67.6 31.9771 67.1005 31.372C66.8745 28.8268 66.2622 26.3264 65.2811 23.9577C64.0147 20.9003 62.1584 18.1223 59.8184 15.7823C57.4784 13.4422 54.7003 11.586 51.6429 10.3196C48.5855 9.05318 45.3086 8.40137 41.9993 8.40137Z" fill="#F2F2F2"/>
<path d="M101.499 8.40137C98.19 8.40137 94.9131 9.05318 91.8557 10.3196C88.7983 11.586 86.0203 13.4422 83.6802 15.7823C81.3402 18.1223 79.484 20.9003 78.2176 23.9577C76.9511 27.0151 76.2993 30.2921 76.2993 33.6014C76.2993 36.9107 76.9511 40.1876 78.2176 43.245C79.484 46.3024 81.3402 49.0804 83.6802 51.4205C86.0203 53.7605 88.7983 55.6167 91.8557 56.8831C94.9131 58.1495 98.19 58.8014 101.499 58.8014C102.505 58.8014 103.507 58.7412 104.501 58.622C103.439 63.3477 101.695 66.9945 100.5 69.1137C100.409 69.19 100.322 69.2617 100.241 69.3285C99.9566 69.562 99.7371 69.7365 99.5932 69.8492C99.5213 69.9055 99.4684 69.9464 99.4357 69.9714L99.4021 69.997L99.3985 69.9997C97.8545 71.1601 97.5409 73.3531 98.7 74.8986C99.8598 76.445 102.054 76.7584 103.6 75.5986L101.601 72.9333C103.6 75.5986 103.599 75.5994 103.6 75.5986L103.605 75.5952L103.611 75.5903L103.63 75.5757L103.693 75.5281C103.745 75.4882 103.818 75.432 103.91 75.3598C104.094 75.2154 104.356 75.0071 104.684 74.7375C105.34 74.1986 106.263 73.4134 107.365 72.4037C109.564 70.388 112.495 67.4572 115.433 63.7851C121.251 56.5123 127.4 45.9467 127.4 33.5986C127.4 32.7528 127.1 31.9771 126.601 31.372C126.374 28.8268 125.762 26.3264 124.781 23.9577C123.515 20.9003 121.658 18.1223 119.318 15.7823C116.978 13.4422 114.2 11.586 111.143 10.3196C108.086 9.05318 104.809 8.40137 101.499 8.40137Z" fill="#F2F2F2"/>
</svg>
