<svg width="82" height="55" viewBox="0 0 82 55" fill="none" xmlns="http://www.w3.org/2000/svg">
<path d="M30.2076 1.35587C34.1365 0.454325 38.1712 0.0898105 42.1976 0.00911661C45.6702 -0.0771424 49.179 0.445977 52.4318 1.69534C54.1876 2.34368 55.7653 3.376 57.4738 4.12729C59.9335 4.01599 62.385 3.41774 64.8364 3.40104C65.4319 5.1457 65.4124 7.02949 65.3345 8.84928C65.1759 11.0141 64.9783 13.2151 64.2075 15.2631C63.6204 16.9688 62.769 18.5632 61.9982 20.1882C58.6814 17.7451 55.1281 15.6192 51.3967 13.869C46.8556 11.7932 42.1057 10.2322 37.4005 8.58215C39.6849 7.98669 41.9583 7.35226 44.2511 6.78462C44.9523 6.61489 45.6591 6.4535 46.3324 6.19194C46.3491 5.7996 46.0013 5.54917 45.7481 5.30709C44.8633 4.55858 43.8059 4.04938 42.7402 3.61252C39.735 2.41602 36.524 1.68699 33.2851 1.64804C31.1982 1.68421 29.1252 2.02368 27.0967 2.49393C28.0094 1.83169 29.1363 1.623 30.2076 1.35587Z" fill="#2D8CD6"/>
<path d="M18.4065 15.8003C21.8597 14.601 25.2321 13.1652 28.7409 12.1245C28.4042 14.1558 28.1733 16.2009 27.9368 18.2461C25.3407 19.0085 22.6917 19.579 20.0538 20.1772C19.4472 20.3136 18.8434 20.4916 18.2173 20.4833L18.209 20.333C18.401 18.8305 18.3676 17.314 18.4065 15.8003Z" fill="#2D8CD6"/>
<path d="M27.0964 2.49384C29.1249 2.02359 31.1979 1.68412 33.2848 1.64795C36.5237 1.6869 39.7347 2.41593 42.7399 3.61243C43.8056 4.04929 44.863 4.5585 45.7478 5.307C46.001 5.54908 46.3489 5.79951 46.3322 6.19185C45.6588 6.45341 44.952 6.6148 44.2508 6.78453C41.6909 4.98979 38.5883 3.97416 35.4774 3.80999C32.4333 5.72438 29.7899 8.61823 28.7409 12.1242C25.2321 13.1649 21.8596 14.6007 18.4065 15.8C18.3675 17.3137 18.4009 18.8302 18.2089 20.3328L18.0281 20.3578C17.658 20.2604 17.2963 20.1408 16.9429 19.9989C17.1349 15.5217 17.939 10.8276 20.7132 7.17409C22.2993 5.00927 24.5615 3.36478 27.0964 2.49384Z" fill="#215A88"/>
<path d="M37.3867 10.6411C37.3923 9.95383 37.3951 9.26654 37.4006 8.58203C42.1059 10.2321 46.8557 11.7931 51.3969 13.8689C55.1283 15.6191 58.6816 17.745 61.9984 20.188C61.3973 20.547 60.7991 20.9059 60.2008 21.2649C56.2663 18.4545 52.1704 15.7888 47.6849 13.944C44.3014 12.6946 40.8733 11.5621 37.3867 10.6411Z" fill="#215A88"/>
<path d="M0.656682 22.2334C2.13978 22.2334 3.62288 22.2334 5.10598 22.2334C5.37032 23.9363 5.60405 25.6448 5.89622 27.3449C6.32752 25.6476 6.65586 23.9252 7.10663 22.2334C8.62312 22.2334 10.1396 22.2334 11.6561 22.2334C11.7034 25.4612 11.4474 28.6833 11.5142 31.9083L11.4975 31.9612C10.5041 31.9751 9.51075 31.9723 8.51738 31.9723C8.62869 29.9355 8.69825 27.8959 8.66207 25.8563C8.10278 27.8848 7.62975 29.9327 7.1122 31.9723C6.1383 31.9723 5.16163 31.9723 4.18774 31.9723C3.82879 29.9578 3.53105 27.9293 3.12202 25.9231C2.94115 27.9348 2.82429 29.9522 2.84098 31.9695C1.89492 31.9723 0.948849 31.9723 0 31.9695C0.358949 28.7362 0.726245 25.4918 0.656682 22.2334Z" fill="#FF2240"/>
<path d="M44.8442 22.2389C47.866 22.2278 50.8907 22.2361 53.9153 22.2333C53.8819 23.1571 53.8736 24.0782 53.8596 25.002C52.9275 25.0187 51.9981 25.0159 51.0687 25.0159C50.9324 27.331 50.8294 29.6516 50.8907 31.9723C49.6997 31.9723 48.5088 31.9723 47.3179 31.9723C47.4987 29.66 47.6434 27.3421 47.61 25.0242C46.6695 25.0131 45.7346 25.0159 44.7969 25.0103C44.8247 24.0865 44.8497 23.1627 44.8442 22.2389Z" fill="#FF2240"/>
<path d="M14.7527 25.3169C15.7349 25.2919 16.7199 25.2919 17.7022 25.2947C18.3644 27.2731 19.0823 29.2348 19.8225 31.1853C20.5014 30.281 21.1247 29.3322 21.7285 28.375C21.1664 27.3287 20.5543 26.3131 19.9365 25.2975C20.8659 25.2947 21.7953 25.2947 22.7247 25.2947C22.9445 25.7761 23.1643 26.263 23.3813 26.7472C23.6429 26.263 23.8989 25.7788 24.1521 25.2947C25.0091 25.2947 25.8662 25.2947 26.7204 25.303C26.0081 26.3854 25.3041 27.4734 24.5917 28.5586C25.2429 29.7161 25.9246 30.8542 26.6397 31.9728C25.6992 31.9728 24.7615 31.9728 23.821 31.9728C23.5455 31.4163 23.2673 30.8598 22.9918 30.3033C22.644 30.8653 22.2989 31.4274 21.9428 31.9839C20.4764 31.9644 19.01 31.9839 17.5435 31.9589C17.3905 31.5025 17.2375 31.049 17.0816 30.5926C16.3331 30.5843 15.5846 30.5787 14.8333 30.5732C14.6302 31.0295 14.4271 31.4858 14.2268 31.945C13.3169 31.9756 12.407 31.9756 11.4971 31.9617L11.5138 31.9088C12.688 29.7607 13.776 27.5625 14.7527 25.3169ZM15.4706 28.8953C15.8601 28.9036 16.2469 28.9092 16.6364 28.9176C16.4751 28.2553 16.3137 27.5958 16.1495 26.9336C15.9213 27.5875 15.6959 28.2414 15.4706 28.8953Z" fill="black"/>
<path d="M27.8191 25.6283C28.8876 25.0746 30.1258 25.3278 31.2611 25.4614C31.3112 26.0513 31.3641 26.644 31.4197 27.2339C30.7463 27.1337 29.8086 26.6356 29.2772 27.2422C29.8365 28.0158 30.7658 28.4387 31.2667 29.2596C31.7425 30.111 31.2722 31.238 30.4208 31.6442C29.2994 32.2063 28.0083 31.928 26.8202 31.7917C26.7562 31.174 26.6922 30.5562 26.6143 29.9413C27.3962 30.2001 28.2087 30.3308 29.0323 30.3448C28.7791 29.1705 27.3461 28.8477 26.9649 27.7431C26.6393 26.95 27.0483 25.9817 27.8191 25.6283Z" fill="black"/>
<path d="M32.2157 29.7548C32.2964 28.2773 32.3186 26.7942 32.4271 25.3194C33.2229 25.261 34.0215 25.2944 34.8173 25.2972C34.8563 26.7775 34.553 28.2661 34.7478 29.7381C34.8452 30.5395 36.2031 30.5089 36.2615 29.7075C36.5787 28.2606 36.4924 26.7663 36.5147 25.2944C37.3467 25.2944 38.1787 25.2944 39.0134 25.2944C38.9383 26.7886 38.891 28.2856 38.8298 29.7826C38.8326 30.6313 38.2287 31.3798 37.4385 31.6442C36.0778 32.1422 34.4974 32.1255 33.1729 31.5217C32.5078 31.2101 32.1099 30.4866 32.2157 29.7548Z" fill="black"/>
<path d="M40.8862 25.6342C41.9547 25.0721 43.1985 25.3281 44.3394 25.4617C44.3895 26.0488 44.4423 26.6387 44.5008 27.2286C43.7884 27.0338 43.0539 26.9503 42.3193 26.9865C42.7144 27.9799 43.8191 28.3722 44.3477 29.2654C44.8208 30.1196 44.3477 31.241 43.4963 31.6473C42.3721 32.2038 41.0838 31.9283 39.8984 31.792C39.8344 31.1742 39.7704 30.5565 39.6953 29.9416C40.4744 30.1976 41.2841 30.3311 42.105 30.3478C41.8657 29.168 40.4216 28.8508 40.0404 27.7433C39.7204 26.9559 40.121 25.9931 40.8862 25.6342Z" fill="black"/>
<path d="M54.1175 25.2943C55.6952 25.3444 57.2869 25.1747 58.8562 25.3861C59.8579 25.5114 60.5814 26.5186 60.3616 27.512C60.3143 28.2661 59.6798 28.7391 59.1623 29.1927C59.4405 30.0497 59.7383 30.8956 60.0694 31.7331C61.1379 29.6128 62.2342 27.5037 63.1664 25.3194C64.1486 25.2888 65.1336 25.2888 66.1187 25.2943C66.8644 27.5426 67.7047 29.7547 68.5284 31.9752C67.6713 31.9752 66.8115 31.9724 65.9545 31.953C65.8042 31.4994 65.6512 31.0459 65.5037 30.5951C64.7497 30.584 63.9984 30.5784 63.2443 30.5756C63.044 31.0292 62.8436 31.4855 62.646 31.9418C60.957 31.9975 59.2652 31.9697 57.5735 31.9641C57.2646 30.698 56.9474 29.4348 56.6302 28.1715C57.0782 28.0045 57.9463 28.1409 58.0214 27.5009C58.0187 26.7162 56.939 27.0696 56.4243 26.9249C56.4243 28.6083 56.3297 30.289 56.2963 31.9724C55.5005 31.9724 54.7074 31.9724 53.9116 31.9724C54.1203 29.752 54.1342 27.5231 54.1175 25.2943ZM63.8898 28.8977C64.2766 28.9033 64.6634 28.9116 65.053 28.9172C64.8888 28.2522 64.7274 27.5871 64.5688 26.9221C64.3378 27.5788 64.1124 28.2383 63.8898 28.8977Z" fill="black"/>
<path d="M68.9179 25.2916C69.8862 25.2889 70.8573 25.2889 71.8256 25.3222C72.3988 26.5549 72.9804 27.7876 73.548 29.023C73.5675 27.7792 73.5953 26.5354 73.6371 25.2944C74.3772 25.2944 75.1174 25.2944 75.8603 25.2944C75.6822 27.5149 75.5876 29.7437 75.5709 31.9725C74.636 31.9725 73.7011 31.9725 72.7661 31.9753C72.1484 30.7593 71.5251 29.5434 70.9603 28.3024C70.938 29.5239 70.9018 30.7482 70.9018 31.9725C70.1589 31.9725 69.4159 31.9725 68.6758 31.9725C68.8233 29.7493 68.929 27.5205 68.9179 25.2916Z" fill="black"/>
<path d="M77.6157 25.6342C78.6842 25.0721 79.928 25.3281 81.0689 25.4617C81.119 26.0488 81.1718 26.6387 81.2303 27.2258C80.5207 27.0394 79.7917 26.9531 79.0599 26.9754C79.4272 27.9826 80.5485 28.3666 81.0717 29.257C81.5503 30.1085 81.0828 31.2299 80.2397 31.6389C79.1127 32.2066 77.8189 31.9283 76.6279 31.792C76.5639 31.1742 76.4999 30.5565 76.4248 29.9416C77.2039 30.2003 78.0164 30.3339 78.8401 30.3422C78.5841 29.168 77.1483 28.8452 76.7698 27.7378C76.4526 26.9503 76.8533 25.9903 77.6157 25.6342Z" fill="black"/>
<path d="M21.083 34.268C21.9317 33.948 22.772 33.6141 23.6123 33.269C27.6582 36.2825 31.9544 39.0818 36.7432 40.7597C39.7066 41.8309 42.6672 42.9078 45.6307 43.9763C45.5583 44.5801 45.7976 45.3119 45.4637 45.8406C39.1418 43.5867 32.689 41.5026 26.8958 38.0439C24.9229 36.9086 23.0725 35.5758 21.1721 34.3264L21.083 34.268Z" fill="#156D05"/>
<path d="M64.7411 34.1318C65.0806 34.3044 65.4201 34.4769 65.7623 34.6494C66.2465 38.4114 65.6288 42.3821 63.6782 45.6683C62.4428 47.7914 60.6647 49.6112 58.5138 50.8077C57.6234 51.3085 56.6606 51.6702 55.773 52.1739L55.7285 52.1767C54.0812 52.2045 52.459 52.5607 50.8145 52.608C48.3881 52.6887 45.9478 52.5412 43.5659 52.0654C40.878 51.5422 38.4294 50.1231 36.4009 48.3117C37.1522 48.0557 37.9146 47.8192 38.6909 47.6411C41.198 49.7614 44.5259 50.6017 47.7481 50.7464C50.5752 48.5927 53.1936 45.8547 54.2148 42.3654L54.237 42.3571C57.7319 41.1967 61.1739 39.8722 64.6076 38.5394C64.5965 37.0702 64.6271 35.5982 64.7411 34.1318Z" fill="#156D05"/>
<path d="M55.0308 36.1991C58.2308 35.2419 61.5086 34.5935 64.7586 33.8506L64.7419 34.1316C64.6278 35.598 64.5972 37.07 64.6084 38.5392C61.1747 39.872 57.7327 41.1965 54.2378 42.3568C54.5411 40.3089 54.8027 38.2554 55.0308 36.1991Z" fill="#1D9808"/>
<path d="M21.1726 34.3262C23.073 35.5755 24.9234 36.9084 26.8963 38.0437C32.6895 41.5024 39.1423 43.5865 45.4642 45.8404C43.227 46.5137 40.962 47.0981 38.6915 47.6407C37.9152 47.8188 37.1527 48.0553 36.4015 48.3113C38.4299 50.1227 40.8786 51.5418 43.5665 52.0649C45.9484 52.5407 48.3887 52.6882 50.8151 52.6075C52.4595 52.5602 54.0818 52.2041 55.729 52.1762C52.1869 53.4506 48.4054 53.9181 44.674 54.2409C40.5224 54.5497 36.2595 54.5859 32.2499 53.3199C29.8625 52.6465 27.7004 51.4166 25.5245 50.2618C23.0703 50.5456 20.6188 50.8434 18.1674 51.1244C17.4857 48.225 17.7139 45.2087 18.2092 42.301C18.6794 39.4822 19.8091 36.8193 21.1726 34.3262Z" fill="#1D9808"/>
</svg>
