<svg width="36" height="36" viewBox="0 0 36 36" fill="none" xmlns="http://www.w3.org/2000/svg">
<path d="M26.5494 4.01953H9.27544C6.41275 4.01953 4.09326 6.33741 4.09326 9.1981V26.46C4.09326 29.3207 6.41275 31.6386 9.27544 31.6386H26.5494C29.4121 31.6386 31.7316 29.3207 31.7316 26.46V9.1981C31.7316 6.33741 29.4121 4.01953 26.5494 4.01953ZM25.8467 18.8935H23.2604V28.4581H18.9414V18.8935H17.2661V15.6716H18.9414V13.6193C18.9425 10.9285 20.0608 9.33089 23.2338 9.33089H26.4495V12.5411H24.5817C23.3465 12.5411 23.2657 13.001 23.2657 13.8615L23.2604 15.6705H26.1986L25.8467 18.8935Z" fill="#6C6C6C"/>
</svg>
