<svg width="16" height="15" viewBox="0 0 16 15" fill="none" xmlns="http://www.w3.org/2000/svg">
<path d="M16 12.6316H12.8V15L8.8 11.4474L12.8 7.89474V10.2632H16V12.6316ZM14.4 0H1.6C1.17565 0 0.768687 0.166353 0.468629 0.462463C0.168571 0.758573 0 1.16018 0 1.57895V11.0526C0 11.4714 0.168571 11.873 0.468629 12.1691C0.768687 12.4652 1.17565 12.6316 1.6 12.6316H7.2V11.0526H1.6V3.15789L8 7.10526L14.4 3.15789V8.68421H16V1.57895C16 1.16018 15.8314 0.758573 15.5314 0.462463C15.2313 0.166353 14.8243 0 14.4 0ZM8 5.52632L1.6 1.57895H14.4L8 5.52632Z" fill="white" fill-opacity="0.55"/>
</svg>
