<svg width="180" height="48" viewBox="0 0 180 48" fill="none" xmlns="http://www.w3.org/2000/svg">
<path d="M43.0538 18.9063L53.8506 32.4444L64.7893 18.9063V40.0118C67.1027 40.0118 69.3217 39.0589 70.9579 37.3634C72.5935 35.6675 73.5128 33.3674 73.5128 30.9694V0.000488281C70.3295 0.000488281 68.8381 0.973654 67.645 2.37258L54.056 18.9063L40.2127 2.32189C38.7164 0.674609 37.1272 0.000488281 34.2373 0.000488281V30.8681C34.2373 33.2878 35.1644 35.6082 36.8153 37.3193C38.4661 39.0305 40.7047 39.9915 43.0391 39.9915V18.9063" fill="white"/>
<path opacity="0.38" d="M24.7611 15.0694C20.0082 9.90961 5.78349 14.1115 4.79084 15.7131C4.96003 14.5915 5.27934 13.4997 5.73948 12.4692C-9.09643 25.8198 8.1453 46.6821 20.0815 47.9999C4.77128 38.248 4.21873 20.4522 24.7611 15.0694Z" fill="url(#paint0_linear)"/>
<path d="M24.9129 0.593324C23.7413 0.191386 22.5139 -0.00882513 21.2797 0.000298298H4.79102C8.38019 11.1511 23.2259 5.71258 23.2161 12.1649C24.952 13.1431 25.4899 14.1163 24.7613 15.0844C22.8836 12.8491 5.20177 12.9353 4.79102 24.9377V26.5951C5.0893 36.3622 8.99631 39.3121 12.2725 39.9102L12.4926 39.9457L12.8838 39.9964C13.1478 39.9964 13.4119 40.0369 13.6808 40.0369V23.1789H22.5755C22.5755 23.1789 33.0545 23.1789 33.0545 12.2358C33.0545 4.6127 27.9984 1.678 24.9129 0.593324Z" fill="white"/>
<path d="M21.4892 11.3539C21.5773 11.136 20.5846 10.9434 19.2497 10.9434C19.1812 11.065 20.2668 11.6225 20.9318 11.6327C21.0379 11.6276 21.1421 11.6002 21.2379 11.5526C21.3337 11.5044 21.4193 11.437 21.4892 11.3539Z" fill="white"/>
<path d="M91.2314 8.91047C90.8227 8.91047 90.2576 8.91047 89.8248 8.91047V13.2969C89.8248 13.3929 89.7876 13.4851 89.7227 13.5524C89.6577 13.6197 89.5688 13.6583 89.4762 13.6583H87.228C87.1836 13.6621 87.1391 13.6558 87.097 13.6396C87.0537 13.6247 87.0152 13.601 86.9828 13.5686C86.9503 13.5374 86.9239 13.4988 86.9058 13.4565C86.8878 13.4141 86.8794 13.368 86.8794 13.3219V1.18433C86.8794 0.561251 87.1198 0.399255 87.6608 0.312024C88.833 0.152516 90.0136 0.0727597 91.1954 0.075252C93.8282 0.075252 96.425 1.03479 96.425 4.43679V4.59879C96.425 7.92602 93.8282 8.91047 91.2314 8.91047ZM93.4676 4.38695C93.4676 3.1408 92.6982 2.59249 91.2314 2.59249H89.8248V6.33095C90.0172 6.33095 91.0271 6.33095 91.2314 6.33095C92.7823 6.33095 93.4676 5.73278 93.4676 4.51155V4.38695Z" fill="white"/>
<path d="M107.968 13.608H105.299C105.106 13.608 105.046 13.4335 104.95 13.2466L102.618 8.72307H102.425H101.223V13.3089C101.223 13.4049 101.186 13.4971 101.121 13.5644C101.056 13.6317 100.967 13.6703 100.874 13.6703H98.6143C98.5217 13.6703 98.4327 13.6317 98.3678 13.5644C98.3029 13.4971 98.2656 13.4049 98.2656 13.3089V1.19632C98.2656 0.573239 98.5061 0.411224 99.0471 0.323993C100.201 0.140808 101.366 0.0324 102.534 0C105.503 0 107.787 1.03431 107.787 4.22446V4.46123C107.832 5.2326 107.637 5.99898 107.233 6.64947C106.829 7.29872 106.235 7.79842 105.539 8.07507L108.172 13.1718C108.186 13.2379 108.186 13.3052 108.172 13.3712C108.232 13.5208 108.16 13.608 107.968 13.608ZM104.83 4.24939C104.83 3.15277 104.012 2.64184 102.546 2.64184C102.305 2.64184 101.403 2.64184 101.187 2.64184V6.23076C101.379 6.23076 102.233 6.23076 102.389 6.23076C104.217 6.23076 104.794 5.74476 104.794 4.51107L104.83 4.24939Z" fill="white"/>
<path d="M114.939 13.7709C112.066 13.7709 109.782 12.1634 109.782 7.97632V5.83294C109.782 1.6334 112.066 0.0258789 114.939 0.0258789C117.813 0.0258789 120.097 1.6334 120.097 5.83294V7.97632C120.097 12.1634 117.813 13.7709 114.939 13.7709ZM117.103 5.83294C117.103 3.66463 116.406 2.74248 114.939 2.74248C113.473 2.74248 112.799 3.66463 112.799 5.83294V7.97632C112.799 10.1446 113.485 11.0668 114.939 11.0668C116.394 11.0668 117.103 10.1446 117.103 7.97632V5.83294Z" fill="white"/>
<path d="M124.413 15.3163L123.62 16.6995C123.427 17.0484 123.331 17.1357 123.091 17.1357H120.807C120.775 17.1394 120.744 17.1369 120.715 17.1257C120.685 17.1157 120.659 17.0983 120.636 17.0759C120.614 17.0522 120.597 17.0248 120.588 16.9936C120.577 16.9637 120.575 16.9313 120.578 16.8989C120.578 16.803 120.603 16.7082 120.65 16.6248L121.588 14.7306C122.127 13.8022 122.359 12.7168 122.249 11.6401V0.53691C122.246 0.493294 122.252 0.449683 122.265 0.40856C122.278 0.366191 122.3 0.328811 122.327 0.296411C122.356 0.264011 122.39 0.236591 122.428 0.217899C122.467 0.200452 122.508 0.189234 122.55 0.187988H124.954C124.996 0.189234 125.037 0.200452 125.076 0.217899C125.114 0.236591 125.148 0.264011 125.177 0.296411C125.204 0.328811 125.226 0.366191 125.239 0.40856C125.252 0.449683 125.258 0.493294 125.255 0.53691V11.6401C125.349 12.9262 125.054 14.2109 124.413 15.3163Z" fill="white"/>
<path d="M135.232 13.5458C134.114 13.7128 132.984 13.7875 131.854 13.7701C129.606 13.7701 127.622 13.1844 127.622 9.89456V3.88809C127.622 0.610707 129.618 0.0250267 131.866 0.0250267C132.992 0.00882668 134.118 0.0873373 135.232 0.261799C135.473 0.261799 135.581 0.386406 135.581 0.623175V2.30549C135.581 2.40144 135.544 2.49364 135.479 2.56093C135.414 2.62823 135.325 2.66686 135.232 2.66686H131.698C130.88 2.66686 130.58 2.95348 130.58 3.91302V5.55795H135.088C135.18 5.55795 135.269 5.59657 135.334 5.66386C135.399 5.73115 135.437 5.82337 135.437 5.91932V7.63902C135.437 7.73498 135.399 7.82719 135.334 7.89448C135.269 7.96178 135.18 8.0004 135.088 8.0004H130.58V9.91948C130.58 10.8541 130.88 11.1656 131.698 11.1656H135.232C135.325 11.1656 135.414 11.2043 135.479 11.2715C135.544 11.3388 135.581 11.4311 135.581 11.527V13.2093C135.581 13.3962 135.473 13.5084 135.232 13.5458Z" fill="white"/>
<path d="M145.235 13.4711C144.387 13.6879 143.512 13.7888 142.638 13.7701C139.994 13.7701 137.481 12.3246 137.481 8.02537V5.75736C137.481 1.45813 139.994 0.0250666 142.638 0.0250666C143.514 0.00886661 144.387 0.113543 145.235 0.336605C145.488 0.411374 145.62 0.486133 145.62 0.735364V2.49244C145.626 2.54104 145.621 2.59089 145.606 2.63699C145.59 2.68435 145.565 2.72673 145.531 2.76162C145.497 2.79651 145.456 2.82267 145.411 2.83887C145.366 2.85507 145.318 2.86005 145.271 2.85382C144.61 2.85382 143.648 2.71674 142.699 2.71674C141.496 2.71674 140.535 3.36476 140.535 5.76983V8.03782C140.535 10.4429 141.496 11.0909 142.699 11.0909C143.648 11.0909 144.61 11.0037 145.271 10.9538C145.318 10.9476 145.366 10.9526 145.411 10.9688C145.456 10.985 145.497 11.0111 145.531 11.046C145.565 11.0809 145.59 11.1233 145.606 11.1707C145.621 11.2168 145.626 11.2666 145.62 11.3152V13.0598C145.62 13.309 145.488 13.3963 145.235 13.4711Z" fill="white"/>
<path d="M155.768 2.74092H152.943V13.246C152.943 13.342 152.906 13.4342 152.841 13.5015C152.776 13.5688 152.687 13.6074 152.594 13.6074H150.31C150.217 13.6074 150.128 13.5688 150.063 13.5015C149.999 13.4342 149.961 13.342 149.961 13.246V2.74092H147.124C147.078 2.74217 147.034 2.73471 146.992 2.71851C146.95 2.70106 146.911 2.67612 146.878 2.64372C146.845 2.61008 146.82 2.57145 146.802 2.52908C146.785 2.48547 146.775 2.43936 146.775 2.392V0.535229C146.775 0.487875 146.785 0.441785 146.802 0.39817C146.82 0.355801 146.845 0.317157 146.878 0.283511C146.911 0.251111 146.95 0.226191 146.992 0.208745C147.034 0.192545 147.078 0.185061 147.124 0.186307H155.768C155.862 0.182569 155.953 0.217475 156.023 0.282275C156.093 0.347075 156.135 0.438029 156.141 0.535229V2.392C156.135 2.4892 156.093 2.58018 156.023 2.64498C155.953 2.70978 155.862 2.74466 155.768 2.74092Z" fill="white"/>
<path d="M98.3612 39.8862H96.0649C96.0241 39.8812 95.9844 39.8688 95.9471 39.8476C95.9111 39.8277 95.8798 39.799 95.8534 39.7653C95.8281 39.7317 95.8089 39.6931 95.7981 39.6519C95.786 39.6108 95.7836 39.5672 95.7884 39.5248V32.0479C95.7884 31.9233 95.7283 31.8984 95.6923 31.8984C95.6562 31.8984 95.6081 31.8984 95.56 32.023L93.9851 35.0013C93.9346 35.0973 93.8601 35.1758 93.7687 35.2281C93.6773 35.2817 93.5728 35.3066 93.4682 35.3004H92.0736C91.9678 35.3054 91.862 35.2804 91.7682 35.2281C91.6756 35.1758 91.5975 35.0973 91.5446 35.0013L89.9817 32.0105C89.9817 31.9233 89.8976 31.8859 89.8374 31.8859C89.7773 31.8859 89.7533 31.8859 89.7533 32.0354V39.5124C89.7581 39.5547 89.7557 39.5984 89.7437 39.6395C89.7328 39.6806 89.7136 39.7192 89.6884 39.7529C89.6619 39.7865 89.6307 39.8152 89.5946 39.8351C89.5573 39.8563 89.5177 39.8688 89.4768 39.8738H87.1805C87.0363 39.8738 86.88 39.8738 86.88 39.6245V27.0882C86.8764 27.0035 86.8896 26.9187 86.9208 26.839C86.9509 26.7605 86.9978 26.6895 87.0567 26.6296C87.1156 26.5711 87.1865 26.5262 87.2635 26.4975C87.3404 26.4689 87.4234 26.4577 87.5051 26.4651H89.1402C89.3001 26.4589 89.4587 26.5025 89.5958 26.5885C89.7316 26.6745 89.841 26.8004 89.9096 26.9511L92.5785 32.1102C92.6506 32.2473 92.6987 32.3345 92.7709 32.3345C92.843 32.3345 92.8911 32.2473 92.9632 32.1102L95.6321 26.9511C95.6995 26.8029 95.8065 26.6782 95.9411 26.5923C96.0758 26.505 96.2321 26.4614 96.3896 26.4651H98.0366C98.1183 26.4614 98.2001 26.4764 98.277 26.5063C98.354 26.5374 98.4237 26.5835 98.4814 26.6434C98.5403 26.7019 98.586 26.7742 98.6173 26.8527C98.6485 26.9312 98.663 27.016 98.6617 27.1007V39.637C98.6617 39.8364 98.5055 39.8862 98.3612 39.8862Z" fill="white"/>
<path d="M110.444 39.8841H108.148C108.105 39.8828 108.061 39.8716 108.022 39.8529C107.982 39.833 107.947 39.8056 107.917 39.7719C107.888 39.7383 107.865 39.6996 107.852 39.656C107.838 39.6136 107.832 39.5675 107.835 39.5227V35.1362H104.048V39.5227C104.05 39.5688 104.042 39.6137 104.028 39.6573C104.012 39.6996 103.988 39.7395 103.958 39.7731C103.928 39.8068 103.892 39.8342 103.851 39.8529C103.812 39.8716 103.768 39.8828 103.724 39.8841H101.416C101.323 39.8841 101.234 39.8454 101.169 39.7781C101.104 39.7108 101.067 39.6186 101.067 39.5227V30.3136C101.067 27.0612 102.966 26.3384 105.299 26.3384H106.609C108.953 26.3384 110.829 27.0612 110.829 30.3136V39.5227C110.829 39.5738 110.819 39.6236 110.799 39.6697C110.78 39.7171 110.751 39.7582 110.715 39.7918C110.679 39.8267 110.635 39.8517 110.588 39.8679C110.543 39.8841 110.494 39.889 110.444 39.8841ZM107.811 30.3136C107.811 29.3167 107.523 29.0675 106.549 29.0675H105.275C104.325 29.0675 104.072 29.3665 104.072 30.3136V32.5941H107.811V30.3136Z" fill="white"/>
<path d="M122.948 39.8863H120.616C120.571 39.8863 120.527 39.8763 120.486 39.8589C120.445 39.8402 120.408 39.8128 120.378 39.7791C120.346 39.7455 120.323 39.7056 120.308 39.6607C120.293 39.6171 120.287 39.571 120.291 39.5249V31.4747C120.291 29.4435 119.654 28.9824 118.223 28.9824C117.54 28.9775 116.857 29.0148 116.179 29.0946V39.5498C116.183 39.5959 116.177 39.642 116.161 39.6857C116.147 39.7305 116.124 39.7704 116.093 39.804C116.063 39.8377 116.026 39.8651 115.985 39.8838C115.944 39.9012 115.899 39.9112 115.855 39.9112H113.535C113.489 39.9112 113.444 39.9012 113.402 39.8838C113.361 39.8651 113.324 39.8389 113.292 39.804C113.26 39.7704 113.236 39.7305 113.22 39.6869C113.204 39.6433 113.197 39.5972 113.198 39.5498V27.7612C113.198 26.9512 113.414 26.7518 114.088 26.6397C115.347 26.4627 116.616 26.3593 117.887 26.3281C121.277 26.3281 123.273 27.3126 123.273 31.4997V39.5498C123.273 39.6395 123.239 39.7243 123.178 39.7878C123.116 39.8514 123.034 39.8863 122.948 39.8863Z" fill="white"/>
<path d="M135.053 39.8841H132.757C132.714 39.8828 132.671 39.8716 132.631 39.8529C132.591 39.833 132.555 39.8056 132.526 39.7719C132.497 39.7383 132.475 39.6996 132.461 39.656C132.447 39.6136 132.441 39.5675 132.444 39.5227V35.1362H128.657V39.5227C128.661 39.5688 128.655 39.6149 128.639 39.6585C128.625 39.7034 128.602 39.7432 128.571 39.7769C128.541 39.8105 128.504 39.8379 128.463 39.8566C128.422 39.8741 128.377 39.8841 128.333 39.8841H126.037C125.944 39.8841 125.855 39.8454 125.79 39.7781C125.725 39.7109 125.688 39.6186 125.688 39.5227V30.3136C125.688 27.0612 127.588 26.3384 129.92 26.3384H131.194C133.526 26.3384 135.402 27.0612 135.402 30.3136V39.5227C135.402 39.57 135.392 39.6174 135.375 39.661C135.357 39.7046 135.332 39.7445 135.3 39.7781C135.267 39.8118 135.229 39.8379 135.187 39.8566C135.145 39.8741 135.099 39.8841 135.053 39.8841ZM132.444 30.3136C132.444 29.3167 132.168 29.0675 131.242 29.0675H129.968C129.006 29.0675 128.766 29.3665 128.766 30.3136V32.5941H132.553L132.444 30.3136Z" fill="white"/>
<path d="M146.439 29.143C145.598 29.143 144.299 28.9934 142.833 28.9934C141.366 28.9934 140.548 29.7037 140.548 32.0714V34.327C140.548 36.8193 141.642 37.3925 142.496 37.3925C142.989 37.3925 143.422 37.3925 143.842 37.3925V33.2428C143.839 33.1967 143.845 33.1506 143.86 33.107C143.875 33.0621 143.898 33.0222 143.929 32.9886C143.959 32.9549 143.996 32.9275 144.037 32.9088C144.078 32.8901 144.123 32.8814 144.167 32.8814H146.403C146.449 32.8814 146.495 32.8914 146.537 32.9088C146.579 32.9275 146.617 32.9537 146.65 32.9873C146.682 33.021 146.707 33.0609 146.725 33.1045C146.742 33.1481 146.752 33.1954 146.752 33.2428V39.3116C146.752 39.5608 146.656 39.6729 146.403 39.7228C145.117 39.987 143.808 40.1116 142.496 40.0966C140.512 40.0966 137.531 38.9253 137.531 34.3519V32.1213C137.531 27.5105 140.296 26.3516 142.833 26.3516C144.047 26.3503 145.256 26.4924 146.439 26.7753C146.62 26.7753 146.74 26.875 146.74 27.037V28.956C146.704 29.1056 146.596 29.143 146.439 29.143Z" fill="white"/>
<path d="M156.621 39.8221C155.503 39.9891 154.373 40.0652 153.243 40.0465C150.995 40.0465 149.011 39.4608 149.011 36.1709V30.1645C149.011 26.8871 151.007 26.3014 153.255 26.3014C154.382 26.2852 155.507 26.3637 156.621 26.5382C156.862 26.5382 156.97 26.6628 156.97 26.8995V28.5819C156.97 28.6778 156.933 28.77 156.868 28.8373C156.803 28.9046 156.714 28.9432 156.621 28.9432H153.087C152.269 28.9432 151.969 29.2298 151.969 30.1894V31.8343H156.489C156.582 31.8343 156.671 31.8729 156.736 31.9402C156.8 32.0075 156.838 32.0997 156.838 32.1957V33.9154C156.838 34.0113 156.8 34.1036 156.736 34.1709C156.671 34.2381 156.582 34.2768 156.489 34.2768H151.969V36.1959C151.969 37.1305 152.269 37.442 153.087 37.442H156.621C156.714 37.442 156.803 37.4806 156.868 37.5479C156.933 37.6152 156.97 37.7074 156.97 37.8034V39.4857C156.97 39.6726 156.862 39.7848 156.621 39.8221Z" fill="white"/>
<path d="M168.907 39.884H166.25C166.058 39.884 165.986 39.7096 165.902 39.5227L163.557 34.9991H163.365H162.163V39.5849C162.163 39.6809 162.126 39.7731 162.061 39.8404C161.996 39.9077 161.907 39.9463 161.814 39.9463H159.506C159.413 39.9463 159.324 39.9077 159.259 39.8404C159.195 39.7731 159.157 39.6809 159.157 39.5849V27.4724C159.157 26.8493 159.398 26.6873 159.939 26.6C161.111 26.443 162.291 26.3645 163.473 26.3633C166.443 26.3633 168.727 27.3976 168.727 30.5877V30.8245C168.771 31.5959 168.577 32.3623 168.173 33.0128C167.769 33.662 167.175 34.1617 166.479 34.4383L169.112 39.5351C169.126 39.6012 169.126 39.6685 169.112 39.7345C169.124 39.7968 169.124 39.884 168.907 39.884ZM165.769 30.5254C165.769 29.4288 164.952 28.9179 163.485 28.9179C163.245 28.9179 162.343 28.9179 162.127 28.9179V32.5068C162.319 32.5068 163.173 32.5068 163.329 32.5068C165.168 32.5068 165.733 32.0208 165.733 30.7871L165.769 30.5254Z" fill="white"/>
<path d="M174.559 40.0471C173.449 40.062 172.342 39.9275 171.265 39.6483C171.096 39.6483 170.916 39.4863 170.916 39.2869V37.4925C170.91 37.4476 170.915 37.4027 170.928 37.3604C170.941 37.318 170.964 37.2781 170.994 37.247C171.024 37.2146 171.061 37.1897 171.101 37.1735C171.142 37.1585 171.185 37.1523 171.229 37.156H171.289C171.998 37.2308 173.922 37.3679 174.595 37.3679C175.797 37.3679 176.146 36.9691 176.146 36.1217C176.146 35.5983 175.905 35.3117 174.943 34.7509L172.539 33.268C171.913 32.959 171.385 32.468 171.021 31.8561C170.655 31.2443 170.469 30.5352 170.483 29.8162C170.483 27.8223 171.565 26.2896 174.943 26.2896C176.187 26.302 177.427 26.4354 178.646 26.6883C178.721 26.7008 178.788 26.7394 178.837 26.7992C178.886 26.8591 178.912 26.9338 178.911 27.0123V28.8442C178.914 28.8853 178.91 28.9277 178.896 28.9663C178.882 29.0049 178.86 29.0411 178.831 29.0697C178.801 29.0984 178.767 29.1196 178.729 29.1333C178.691 29.1457 178.65 29.1495 178.61 29.1433C178.117 29.1433 176.098 28.9439 174.919 28.9439C173.922 28.9439 173.561 29.2554 173.561 29.9034C173.561 30.5514 173.777 30.6511 174.763 31.1496L176.987 32.3957C177.704 32.6748 178.318 33.177 178.748 33.8338C179.179 34.4892 179.404 35.2669 179.392 36.0594C179.32 38.0159 178.105 40.0471 174.559 40.0471Z" fill="white"/>
<defs>
<linearGradient id="paint0_linear" x1="9.00103" y1="40.5238" x2="16.0233" y2="8.97404" gradientUnits="userSpaceOnUse">
<stop stop-color="#EDEDED" stop-opacity="0"/>
<stop offset="1" stop-color="#B5B5B6"/>
</linearGradient>
</defs>
</svg>
