<svg width="24" height="24" viewBox="0 0 24 24" fill="none" xmlns="http://www.w3.org/2000/svg">
<path d="M1.5 23.0999V21.5999C1.5 20.1113 2.7114 18.8999 4.2 18.8999H19.8C21.2886 18.8999 22.5 20.1113 22.5 21.5999V23.0999H1.5Z" fill="#B0C1D4"/>
<path d="M19.8002 19.2001C21.1238 19.2001 22.2002 20.2765 22.2002 21.6001V22.8001H1.8002V21.6001C1.8002 20.2765 2.8766 19.2001 4.2002 19.2001H19.8002ZM19.8002 18.6001H4.2002C2.5436 18.6001 1.2002 19.9435 1.2002 21.6001V23.4001H22.8002V21.6001C22.8002 19.9435 21.4568 18.6001 19.8002 18.6001Z" fill="#66798F"/>
<path d="M6.8999 19.5H8.0999V20.7H6.8999V19.5Z" fill="#4B6477"/>
<path d="M7.8001 19.8002V20.4002H7.2001V19.8002H7.8001ZM8.4001 19.2002H6.6001V21.0002H8.4001V19.2002Z" fill="#36404D"/>
<path d="M9.8999 19.5H11.0999V20.7H9.8999V19.5Z" fill="#4B6477"/>
<path d="M10.8001 19.8002V20.4002H10.2001V19.8002H10.8001ZM11.4001 19.2002H9.6001V21.0002H11.4001V19.2002Z" fill="#36404D"/>
<path d="M12.8999 19.5H14.0999V20.7H12.8999V19.5Z" fill="#4B6477"/>
<path d="M13.8001 19.8002V20.4002H13.2001V19.8002H13.8001ZM14.4001 19.2002H12.6001V21.0002H14.4001V19.2002Z" fill="#36404D"/>
<path d="M15.8999 19.5H17.0999V20.7H15.8999V19.5Z" fill="#4B6477"/>
<path d="M16.8001 19.8002V20.4002H16.2001V19.8002H16.8001ZM17.4001 19.2002H15.6001V21.0002H17.4001V19.2002Z" fill="#36404D"/>
<path d="M11.7999 17.1003C8.54971 17.1003 5.69971 14.2503 5.69971 11.0001C5.69971 8.59114 7.02451 6.39994 7.67611 5.46694C7.86991 6.09634 8.22811 7.11034 8.74351 7.95574L9.00871 8.39074L9.26011 7.94794C10.7685 5.29414 11.7987 2.24374 12.1527 1.12354C13.4361 2.25034 17.8995 6.49534 17.8995 10.9995C17.8995 14.3637 15.1629 17.1003 11.7999 17.1003Z" fill="#8BB7F0"/>
<path d="M12.2981 1.6573C13.8605 3.0919 17.5997 6.9487 17.5997 10.9999C17.5997 14.1979 14.9981 16.8001 11.7995 16.8001C8.7101 16.8001 5.9999 14.0899 5.9999 10.9999C5.9999 9.0385 6.9197 7.2133 7.5857 6.1483C7.7975 6.7465 8.0993 7.4749 8.4875 8.1121L9.0179 8.9827L9.5213 8.0965C10.8923 5.6845 11.8535 3.0133 12.2981 1.6573ZM11.9999 0.600098C11.9999 0.600098 10.8827 4.4869 8.9999 7.8001C8.2199 6.5197 7.7999 4.8001 7.7999 4.8001C7.7999 4.8001 5.3999 7.6753 5.3999 10.9999C5.3999 14.3245 8.2655 17.4001 11.8001 17.4001C15.3347 17.4001 18.2003 14.5345 18.2003 10.9999C18.1997 5.5573 11.9999 0.600098 11.9999 0.600098Z" fill="#4E7AB5"/>
<path d="M8.3999 13.8C8.3999 10.7772 11.9999 9.3372 11.9999 6C13.5077 8.2608 15.5999 10.4592 15.5999 13.8C15.5999 15.5676 13.7675 16.8 11.9999 16.8C10.2323 16.8 8.3999 15.5676 8.3999 13.8Z" fill="#C2E8FF"/>
<path d="M10.2002 14.9999C10.2002 14.0057 12.0002 11.3999 12.0002 11.3999C12.0002 11.3999 13.8002 14.0057 13.8002 14.9999C13.8002 15.9941 12.9944 16.7999 12.0002 16.7999C11.006 16.7999 10.2002 15.9941 10.2002 14.9999Z" fill="white"/>
<path d="M18.8999 19.5H20.0999V20.7H18.8999V19.5Z" fill="#4B6477"/>
<path d="M19.8001 19.8002V20.4002H19.2001V19.8002H19.8001ZM20.4001 19.2002H18.6001V21.0002H20.4001V19.2002Z" fill="#36404D"/>
<path d="M3.8999 19.5H5.0999V20.7H3.8999V19.5Z" fill="#4B6477"/>
<path d="M4.8001 19.8002V20.4002H4.2001V19.8002H4.8001ZM5.4001 19.2002H3.6001V21.0002H5.4001V19.2002Z" fill="#36404D"/>
</svg>
