<svg width="37" height="60" viewBox="0 0 37 60" fill="none" xmlns="http://www.w3.org/2000/svg">
<path d="M16.5948 0C17.1836 0.580332 17.6889 1.23944 18.21 1.87951C19.2332 3.17738 20.1518 4.5606 20.8977 6.03637C20.9614 6.16898 21.0264 6.30028 21.0922 6.43158C21.1434 6.54646 21.198 6.66135 21.2499 6.77623C21.3176 6.92788 21.3852 7.08018 21.4496 7.2338C21.541 7.45241 21.629 7.67233 21.7112 7.89488C22.1574 9.09625 22.4741 10.3521 22.5779 11.6316C22.7212 13.3056 22.4846 15.0361 21.744 16.5559C21.7269 16.5894 21.6934 16.657 21.6763 16.6905C21.4194 17.1992 21.0751 17.6548 20.7163 18.0947C20.3877 18.6067 20.0887 19.1378 19.7267 19.6282C20.6118 19.0387 21.4707 18.3894 22.1712 17.5833C23.0813 16.5651 23.7798 15.3519 24.1721 14.0429C24.1905 14.0317 24.2266 14.0081 24.245 13.9969C24.9909 14.8004 25.6395 15.6998 26.1119 16.6911C26.1816 16.8401 26.2499 16.9898 26.3156 17.1408C26.3682 17.2708 26.4188 17.4014 26.4727 17.5314C27.2198 19.5442 27.3447 21.8721 26.4057 23.8448C25.9858 24.7094 25.3076 25.4401 24.4783 25.9265C22.6541 26.9093 20.8977 28.0312 19.3008 29.3547C17.98 30.4491 16.7788 31.7187 15.9324 33.2201C15.1997 34.5219 14.7851 35.9977 14.7135 37.4885C14.8087 38.3958 15.0703 39.2834 15.41 40.1289C15.8693 41.2036 16.5449 42.2028 17.4556 42.9459C17.8565 43.2846 18.3027 43.5682 18.7686 43.8098C18.856 43.8518 18.944 43.8945 19.0327 43.9378C19.1648 43.995 19.2976 44.054 19.4316 44.1098C19.5413 44.1519 19.6531 44.1952 19.7648 44.2352C19.9356 44.293 20.1078 44.3455 20.2786 44.4046C20.3141 44.4118 20.3858 44.4256 20.4212 44.4328C20.508 44.4584 20.596 44.4834 20.6847 44.507C20.8103 44.5372 20.9384 44.5608 21.0646 44.5924C21.175 44.6107 21.2873 44.6298 21.3977 44.656C22.206 44.83 23.0313 44.6954 23.8396 44.5937C23.9677 44.5648 24.0985 44.5457 24.2293 44.5267C24.7162 44.4151 25.2031 44.2956 25.669 44.1138C25.7788 44.0685 25.8885 44.0238 25.9989 43.9779C26.0429 43.9569 26.0883 43.9359 26.1336 43.9155C26.2 43.8834 26.267 43.8518 26.3347 43.8203C26.3669 43.8033 26.4319 43.7685 26.4648 43.7514C27.4571 43.2229 28.2844 42.3767 28.7312 41.3401C29.1511 40.4598 29.2727 39.4311 29.0007 38.4897C28.9225 38.2422 28.8751 37.9606 28.6708 37.7807C28.0748 37.1708 27.3302 36.6456 26.4661 36.5314C25.6237 36.404 24.7786 36.7008 24.065 37.1314C23.101 37.7209 22.2776 38.5087 21.518 39.3379C21.4444 39.4593 21.3189 39.3313 21.2637 39.2656C21.035 39.0208 20.8589 38.7313 20.7255 38.4247C20.6847 38.2888 20.642 38.1536 20.596 38.0203C20.5389 37.5384 20.5487 37.0513 20.5954 36.5688C20.6486 36.3325 20.6887 36.0929 20.7353 35.8552C20.7951 35.6156 20.8346 35.3714 20.8917 35.1311C20.9055 34.9749 20.9154 34.8186 20.9246 34.6624C20.9548 34.5114 20.9726 34.3591 20.9903 34.2068C21.0232 34.1011 21.0534 33.9954 21.0869 33.8903C21.1066 33.8247 21.127 33.7591 21.1493 33.6941C21.2032 33.5575 21.2597 33.4223 21.3162 33.287C21.9142 32.045 22.9341 30.9802 24.2207 30.4504C24.4192 30.367 24.615 30.2771 24.8121 30.1897C25.0553 30.0867 25.2951 29.9764 25.5337 29.8628C25.604 29.8307 25.6743 29.7985 25.7466 29.7676C26.4109 29.4354 27.0891 29.1164 27.6857 28.6687C28.5078 28.0608 29.1846 27.2585 29.6394 26.3427C29.6551 26.3093 29.6867 26.243 29.7018 26.2095C29.8267 25.9318 29.9338 25.6469 30.031 25.3587C30.0389 25.3232 30.054 25.2517 30.0612 25.2156C30.0954 25.1092 30.1237 25.0016 30.1565 24.8952C30.1914 24.6937 30.236 24.4947 30.2636 24.2925C30.3096 24.0779 30.3103 23.8566 30.3228 23.6387C30.3418 23.5422 30.3596 23.4457 30.3767 23.3498C31.2566 24.1094 32.0694 24.9654 32.6648 25.9692C33.222 26.9086 33.5755 27.9925 33.5473 29.0928C33.5808 30.4018 33.1142 31.6616 32.5458 32.8209C33.4139 33.8365 34.1873 34.9342 34.8221 36.1099C34.8556 36.1775 34.8911 36.2458 34.9266 36.3141C35.0501 36.5491 35.1645 36.7887 35.2782 37.029C35.4063 37.3139 35.5305 37.6001 35.6429 37.8916C36.298 39.5584 36.6489 41.3447 36.6568 43.1356C36.6502 45.0755 36.2316 47.0063 35.4746 48.7912C35.3885 48.9875 35.2992 49.1832 35.2098 49.3788C35.194 49.4116 35.1612 49.4773 35.1454 49.5101C35.1296 49.5429 35.0981 49.6092 35.083 49.6427C33.4257 52.9954 30.5869 55.7178 27.2409 57.3669C27.2067 57.3833 27.139 57.4161 27.1055 57.4325C26.9123 57.5251 26.7178 57.6164 26.5213 57.7017C26.3682 57.7654 26.2164 57.8323 26.0626 57.8947C25.9522 57.9367 25.8432 57.9814 25.7321 58.0221C25.648 58.0536 25.5645 58.0857 25.4817 58.1192C25.2202 58.2105 24.958 58.2978 24.6952 58.3825C24.6275 58.4008 24.5605 58.4212 24.4941 58.4422C22.7284 58.9654 20.8773 59.2031 19.036 59.1151C17.4136 59.0101 15.8003 58.7462 14.2324 58.3129C14.0813 58.265 13.9295 58.2197 13.7764 58.1803C13.6903 58.1494 13.6049 58.1192 13.5208 58.0884C13.486 58.0805 13.4156 58.0654 13.3808 58.0575C13.3151 58.0326 13.2494 58.0089 13.1843 57.986C13.1002 57.9544 13.0155 57.9242 12.9327 57.894C12.8393 57.8625 12.7473 57.8291 12.6553 57.7989C12.5699 57.7641 12.4858 57.7312 12.4017 57.6984C12.2657 57.6459 12.1323 57.5914 11.9976 57.5389C11.8438 57.4713 11.6913 57.4036 11.5369 57.34C9.51167 56.4301 7.65923 55.1447 6.08674 53.5803C5.31462 52.8365 4.62858 52.0106 3.95897 51.1756C3.40041 50.4659 2.90165 49.711 2.45678 48.9258C2.34836 48.7276 2.24256 48.5286 2.13611 48.3297C2.07105 48.1978 2.006 48.0658 1.94028 47.9352C0.756803 45.4793 0.133191 42.7706 0.0214804 40.0515C-0.106002 37.0743 0.336243 34.0788 1.2871 31.2552C1.37253 31.0143 1.4573 30.7727 1.54075 30.5305C1.57361 30.4464 1.60581 30.3624 1.63932 30.279C1.71095 30.0768 1.79243 29.8779 1.87063 29.6783C1.92386 29.549 1.97708 29.4197 2.03162 29.291C2.10588 29.1118 2.18605 28.9345 2.2603 28.7553C2.34967 28.5604 2.4397 28.3654 2.52841 28.1697C2.57046 28.0805 2.61252 27.9918 2.65326 27.9026C2.72686 27.7516 2.7998 27.6006 2.87537 27.4509C4.05819 25.0718 5.51438 22.8424 7.00014 20.6438C8.47735 18.4511 10.0196 16.3012 11.4193 14.0573C12.7224 11.973 13.9446 9.82166 14.793 7.50821C15.1334 6.59898 15.4304 5.67268 15.6807 4.73456C15.7097 4.62887 15.7359 4.52252 15.7668 4.41683C15.8247 4.17327 15.8904 3.93168 15.941 3.68616C15.9633 3.59622 15.9863 3.50694 16.0087 3.417C16.0323 3.31131 16.0501 3.20364 16.0704 3.09729C16.119 2.89838 16.1644 2.69815 16.1959 2.4953C16.2301 2.34759 16.2531 2.19725 16.2899 2.04954C16.3024 1.95829 16.3149 1.8677 16.3293 1.77645C16.3596 1.64712 16.376 1.51517 16.3957 1.38321C16.4233 1.25192 16.441 1.11865 16.4608 0.98604C16.491 0.836361 16.5068 0.684057 16.5271 0.533065C16.5652 0.357784 16.5764 0.177907 16.5948 0Z" fill="#04A4DF"/>
</svg>
