<svg width="24" height="24" viewBox="0 0 24 24" fill="none" xmlns="http://www.w3.org/2000/svg">
<path d="M21.5 5.5H2.5C1.9485 5.5 1.5 5.9485 1.5 6.5C1.5 7.0515 1.9485 7.5 2.5 7.5H21.5C22.052 7.5 22.5 7.0515 22.5 6.5C22.5 5.9485 22.052 5.5 21.5 5.5ZM21.5 16.5H2.5C1.9485 16.5 1.5 16.9485 1.5 17.5C1.5 18.0515 1.9485 18.5 2.5 18.5H21.5C22.052 18.5 22.5 18.0515 22.5 17.5C22.5 16.9485 22.052 16.5 21.5 16.5Z" fill="#7E57C2"/>
<path d="M18.5137 4.49999V19.507C18.5137 20.3295 20.0002 20.9995 20.0002 20.9995V3.00049C20.0002 3.00049 18.5137 3.67749 18.5137 4.49999ZM14.5002 4.49999V19.507C14.5002 20.3295 15.9867 20.9995 15.9867 20.9995V3.00049C15.9867 3.00049 14.5002 3.67749 14.5002 4.49999ZM10.5137 4.49999V19.507C10.5137 20.3295 12.0002 20.9995 12.0002 20.9995V3.00049C12.0002 3.00049 10.5137 3.67749 10.5137 4.49999ZM6.51367 4.49999V19.507C6.51367 20.3295 8.00017 20.9995 8.00017 20.9995V3.00049C8.00017 3.00049 6.51367 3.67749 6.51367 4.49999ZM2.51367 4.49999V19.507C2.51367 20.329 4.00017 20.9995 4.00017 20.9995V3.00049C4.00017 3.00049 2.51367 3.67749 2.51367 4.49999Z" fill="#D1C4E9"/>
<path d="M21.5 19.507V4.5C21.5 3.6755 20.007 3 20.007 3L20 3.0005V20.9995L20.007 21C20.007 21 21.5 20.3315 21.5 19.507ZM17.4865 19.507V4.5C17.4865 3.6755 15.9935 3 15.9935 3L15.9865 3.0005V20.9995L15.993 21C15.993 21 17.4865 20.3315 17.4865 19.507ZM13.5 19.507V4.5C13.5 3.6755 12.007 3 12.007 3L12 3.0005V20.9995L12.007 21C12.007 21 13.5 20.3315 13.5 19.507ZM9.5 19.507V4.5C9.5 3.6755 8.007 3 8.007 3L8 3.0005V20.9995L8.007 21C8.007 21 9.5 20.3315 9.5 19.507ZM5.5 19.507V4.5C5.5 3.6755 4.007 3 4.007 3L4 3.0005V20.9995L4.007 21C4.007 21 5.5 20.3315 5.5 19.507Z" fill="#B39DDB"/>
</svg>
