<svg width="36" height="36" viewBox="0 0 36 36" fill="none" xmlns="http://www.w3.org/2000/svg">
<path d="M17.8857 13.2261C16.664 13.2261 15.4923 13.711 14.6285 14.5743C13.7646 15.4376 13.2793 16.6084 13.2793 17.8292C13.2793 19.0501 13.7646 20.2209 14.6285 21.0842C15.4923 21.9474 16.664 22.4324 17.8857 22.4324C19.1074 22.4324 20.279 21.9474 21.1429 21.0842C22.0067 20.2209 22.4921 19.0501 22.4921 17.8292C22.4921 16.6084 22.0067 15.4376 21.1429 14.5743C20.279 13.711 19.1074 13.2261 17.8857 13.2261Z" fill="#6C6C6C"/>
<path d="M23.6426 4.01953H12.1267C7.68266 4.01953 4.06665 7.63417 4.06665 12.0762V23.5842C4.06665 28.0251 7.68381 31.6386 12.129 31.6386H23.6449C28.0889 31.6386 31.7049 28.0239 31.7049 23.5819V12.0739C31.7049 7.63302 28.0878 4.01953 23.6426 4.01953ZM17.8858 24.7338C14.0752 24.7338 10.9762 21.637 10.9762 17.8291C10.9762 14.0211 14.0752 10.9243 17.8858 10.9243C21.6964 10.9243 24.7954 14.0211 24.7954 17.8291C24.7954 21.637 21.6964 24.7338 17.8858 24.7338ZM25.947 10.9243C25.3113 10.9243 24.7954 10.4087 24.7954 9.7735C24.7954 9.13826 25.3113 8.62271 25.947 8.62271C26.5826 8.62271 27.0986 9.13826 27.0986 9.7735C27.0986 10.4087 26.5826 10.9243 25.947 10.9243Z" fill="#6C6C6C"/>
</svg>
