<svg width="16" height="17" viewBox="0 0 16 17" fill="none" xmlns="http://www.w3.org/2000/svg">
<path fill-rule="evenodd" clip-rule="evenodd" d="M5.23561 0.999925V0H10.2356V0.999925H12.2351V2.99992H3.23513V0.999925H5.23561ZM2.23535 11.9999V0.999925H0.235352V11.9999C0.235352 14.7613 2.47393 16.9999 5.23535 16.9999H10.2354C12.9968 16.9999 15.2354 14.7613 15.2354 11.9999V0.999925H13.2354V11.9999C13.2354 13.6568 11.8922 14.9999 10.2354 14.9999H5.23535C3.5785 14.9999 2.23535 13.6568 2.23535 11.9999ZM4.52813 8.24204L5.94235 6.82782L7.35656 8.24204L10.185 5.41361L11.5992 6.82782L7.35656 11.0705L4.52813 8.24204Z" fill="#5186EC"/>
</svg>
