<svg width="18" height="18" viewBox="0 0 18 18" fill="none" xmlns="http://www.w3.org/2000/svg">
<path d="M16.5624 8.54648C14.896 5.03613 12.377 3.26953 9.00029 3.26953C5.62177 3.26953 3.10458 5.03613 1.43818 8.54824C1.37134 8.68978 1.33667 8.84436 1.33667 9.00088C1.33667 9.1574 1.37134 9.31198 1.43818 9.45352C3.10458 12.9639 5.62353 14.7305 9.00029 14.7305C12.3788 14.7305 14.896 12.9639 16.5624 9.45176C16.6977 9.16699 16.6977 8.83652 16.5624 8.54648ZM9.00029 13.4648C6.16493 13.4648 4.08896 12.027 2.6247 9C4.08896 5.97305 6.16493 4.53516 9.00029 4.53516C11.8356 4.53516 13.9116 5.97305 15.3759 9C13.9134 12.027 11.8374 13.4648 9.00029 13.4648ZM8.92997 5.90625C7.22138 5.90625 5.83622 7.29141 5.83622 9C5.83622 10.7086 7.22138 12.0938 8.92997 12.0938C10.6386 12.0938 12.0237 10.7086 12.0237 9C12.0237 7.29141 10.6386 5.90625 8.92997 5.90625ZM8.92997 10.9688C7.84189 10.9688 6.96122 10.0881 6.96122 9C6.96122 7.91191 7.84189 7.03125 8.92997 7.03125C10.0181 7.03125 10.8987 7.91191 10.8987 9C10.8987 10.0881 10.0181 10.9688 8.92997 10.9688Z" fill="white"/>
</svg>
