<svg width="18" height="18" viewBox="0 0 18 18" fill="none" xmlns="http://www.w3.org/2000/svg">
<path fill-rule="evenodd" clip-rule="evenodd" d="M0.799805 7.84216C0.799805 11.7253 3.959 14.8845 7.84216 14.8845C9.34576 14.8842 10.8077 14.3999 12.0127 13.5058L15.7904 17.2835L17.2826 15.7913L13.505 12.0136C14.3995 10.8085 14.8842 9.34616 14.8845 7.84216C14.8845 3.959 11.7253 0.799805 7.84216 0.799805C3.959 0.799805 0.799805 3.959 0.799805 7.84216ZM7.84216 2.91039C10.5619 2.91039 12.7739 5.12245 12.7739 7.84216C12.7739 10.5619 10.5619 12.7739 7.84216 12.7739C5.12245 12.7739 2.91039 10.5619 2.91039 7.84216C2.91039 5.12245 5.12245 2.91039 7.84216 2.91039Z" fill="#C1C1C1"/>
</svg>
