<svg width="24" height="24" viewBox="0 0 24 24" fill="none" xmlns="http://www.w3.org/2000/svg">
<path d="M20.8281 17.0391H20.0859V12.5859C20.0859 11.9271 19.5434 11.4141 18.9247 11.4141H12.5859V8.21094H16.375C16.6986 8.21094 16.9609 7.94859 16.9609 7.625V2.58594C16.9609 2.26234 16.6986 2 16.375 2H7.625C7.30141 2 7.03906 2.26234 7.03906 2.58594V7.625C7.03906 7.94859 7.30141 8.21094 7.625 8.21094H11.4141V11.4141H5.08594C4.43977 11.4141 3.91406 11.9398 3.91406 12.5859V17.0391H3.17188C2.5257 17.0391 2 17.5648 2 18.2109V20.8281C2 21.4743 2.5257 22 3.17188 22H5.78906C6.43523 22 6.96094 21.4743 6.96094 20.8281V18.2109C6.96094 17.5648 6.43523 17.0391 5.78906 17.0391H5.08594V12.5859H11.4141V17.0391H10.7109C10.0648 17.0391 9.53906 17.5648 9.53906 18.2109V20.8281C9.53906 21.4743 10.0648 22 10.7109 22H13.2891C13.9352 22 14.4609 21.4743 14.4609 20.8281V18.2109C14.4609 17.5648 13.9352 17.0391 13.2891 17.0391H12.5859V12.5859H18.9141V17.0391H18.2109C17.5648 17.0391 17.0391 17.5648 17.0391 18.2109V20.8281C17.0391 21.4743 17.5648 22 18.2109 22H20.8281C21.4743 22 22 21.4743 22 20.8281V18.2109C22 17.5648 21.4743 17.0391 20.8281 17.0391ZM8.21094 3.17188H15.7891V7.03906H8.21094V3.17188ZM5.7898 20.8281C5.7859 20.8288 5.51855 20.8281 3.17188 20.8281V18.2109H5.78906L5.7898 20.8281ZM13.2898 20.8281C13.2859 20.8288 13.0509 20.8281 10.7109 20.8281V18.2109H13.2891L13.2898 20.8281ZM20.8281 20.8281H18.2109V18.2109H20.8281C20.8289 20.8848 20.832 20.8281 20.8281 20.8281Z" fill="white" stroke="white" stroke-width="0.4"/>
<path d="M14.4609 5.125C14.4609 4.80141 14.1986 4.53906 13.875 4.53906H10.125C9.80141 4.53906 9.53906 4.80141 9.53906 5.125C9.53906 5.44859 9.80141 5.71094 10.125 5.71094H13.875C14.1986 5.71094 14.4609 5.44859 14.4609 5.125Z" fill="white"/>
</svg>
