<svg width="24" height="24" viewBox="0 0 24 24" fill="none" xmlns="http://www.w3.org/2000/svg">
<path d="M24 3.64012V14.9868C24 16.243 22.9814 17.2616 21.7251 17.2616H13.6784C13.1874 17.2614 12.7098 17.4203 12.3168 17.7142L5.66499 22.6854V19.5365C5.66499 18.28 4.64662 17.2616 3.39011 17.2616H2.27488C1.01859 17.2616 0 16.243 0 14.9868V3.64012C0 2.38382 1.01859 1.36523 2.27488 1.36523H21.7251C22.9814 1.36523 24 2.38382 24 3.64012Z" fill="url(#paint0_linear)"/>
<path d="M18.5836 7.47168C19.7219 7.47168 20.6447 8.39474 20.6445 9.53329C20.6443 10.6716 19.7212 11.5945 18.5829 11.5942C17.4446 11.594 16.5218 10.6712 16.522 9.53262C16.522 8.3943 17.445 7.47146 18.5836 7.47168Z" fill="url(#paint1_linear)"/>
<path d="M11.9374 7.47168C13.0759 7.47146 13.999 8.3943 13.999 9.53285C13.9992 10.6714 13.0762 11.5942 11.9376 11.5942C10.7991 11.5942 9.87624 10.6712 9.87646 9.53262C9.87669 8.39452 10.7993 7.4719 11.9374 7.47168Z" fill="url(#paint2_linear)"/>
<path d="M5.29212 7.47168C6.43068 7.47146 7.35373 8.3943 7.35373 9.53285C7.35373 10.6714 6.43068 11.5942 5.29235 11.5942C4.15379 11.5942 3.23096 10.6712 3.23096 9.53262C3.23118 8.39452 4.15379 7.4719 5.29212 7.47168Z" fill="url(#paint3_linear)"/>
<defs>
<linearGradient id="paint0_linear" x1="24" y1="0.857611" x2="-3.48171" y2="16.8484" gradientUnits="userSpaceOnUse">
<stop stop-color="#6CB6FF"/>
<stop offset="1" stop-color="#0D82FE"/>
</linearGradient>
<linearGradient id="paint1_linear" x1="16.397" y1="11.5942" x2="21.2717" y2="9.63002" gradientUnits="userSpaceOnUse">
<stop stop-color="#5DB7EC"/>
<stop offset="1" stop-color="#BAFBB5"/>
</linearGradient>
<linearGradient id="paint2_linear" x1="9.75154" y1="11.5942" x2="14.6261" y2="9.63003" gradientUnits="userSpaceOnUse">
<stop stop-color="#5DB7EC"/>
<stop offset="1" stop-color="#BAFBB5"/>
</linearGradient>
<linearGradient id="paint3_linear" x1="3.10602" y1="11.5942" x2="7.98084" y2="9.62983" gradientUnits="userSpaceOnUse">
<stop stop-color="#5DB7EC"/>
<stop offset="1" stop-color="#BAFBB5"/>
</linearGradient>
</defs>
</svg>
