<svg width="24" height="24" viewBox="0 0 24 24" fill="none" xmlns="http://www.w3.org/2000/svg">
<g clip-path="url(#clip0)">
<path d="M15.0766 0.0803459V3.91267C15.0766 4.47074 15.5293 4.9234 16.0873 4.9234H20.4462L20.4827 4.88294L20.5472 4.94157V18.9144C20.5472 19.7519 19.8685 20.4305 19.0311 20.4305H14.9615V15.9726C15.8968 14.5092 15.6161 12.5809 14.3026 11.4446C12.989 10.3084 11.0404 10.3084 9.7268 11.4446C8.41304 12.5809 8.13252 14.5092 9.06785 15.9726V20.4305H4.99804C4.16083 20.4305 3.48193 19.7519 3.48193 18.9144V1.51611C3.48193 0.678695 4.16083 0 4.99804 0H15.0843L15.12 0.0323752L15.0766 0.0803459Z" fill="url(#paint0_linear)"/>
<path d="M20.4827 4.88279L20.4462 4.92326H16.0874C15.5293 4.92326 15.0767 4.4706 15.0767 3.91252V0.0801972L15.1201 0.0322266L20.4827 4.88279Z" fill="url(#paint1_linear)"/>
<path d="M14.9617 15.9724C14.0246 17.4386 12.1523 17.9929 10.5681 17.2731C8.9841 16.5534 8.16998 14.7787 8.65798 13.1084C9.14597 11.4383 10.7876 10.381 12.51 10.6273C14.2325 10.8737 15.5119 12.3489 15.5119 14.0889C15.5123 14.7565 15.3212 15.4102 14.9617 15.9724Z" fill="#FEDB41"/>
<path d="M14.9615 20.4306V23.9999L12.0146 21.4782L9.06787 23.9999V15.9727C9.71084 16.9779 10.8217 17.5859 12.0146 17.5859C13.2078 17.5859 14.3186 16.9779 14.9615 15.9727V20.4306Z" fill="url(#paint2_linear)"/>
</g>
<defs>
<linearGradient id="paint0_linear" x1="20.5472" y1="-0.486443" x2="-1.4999" y2="9.03252" gradientUnits="userSpaceOnUse">
<stop stop-color="#6CB6FF"/>
<stop offset="1" stop-color="#0D82FE"/>
</linearGradient>
<linearGradient id="paint1_linear" x1="14.9128" y1="4.92326" x2="21.1131" y2="2.16177" gradientUnits="userSpaceOnUse">
<stop stop-color="#5DB7EC"/>
<stop offset="1" stop-color="#BAFBB5"/>
</linearGradient>
<linearGradient id="paint2_linear" x1="8.88927" y1="23.9999" x2="16.3377" y2="21.7963" gradientUnits="userSpaceOnUse">
<stop stop-color="#5DB7EC"/>
<stop offset="1" stop-color="#BAFBB5"/>
</linearGradient>
<clipPath id="clip0">
<rect width="24" height="24" fill="white"/>
</clipPath>
</defs>
</svg>
