<svg width="64" height="64" viewBox="0 0 64 64" fill="none" xmlns="http://www.w3.org/2000/svg">
<path d="M9.33325 17.3335H54.6666V25.3335H9.33325V17.3335Z" fill="#29B6F6"/>
<path d="M38.6666 10.6668V16.0002H35.7333C32.5333 16.0002 34.1333 14.6668 29.3333 14.6668V9.3335C34.1333 9.3335 32.5333 10.6668 35.7333 10.6668H38.6666Z" fill="#AA00FF"/>
<path d="M5.33325 25.3335H58.6666V52.0002H5.33325V25.3335Z" fill="#81D4FA"/>
<path d="M38.6666 49.3333H25.3333V45.3333C25.3333 41.6 28.2666 38.6667 31.9999 38.6667C35.7333 38.6667 38.6666 41.6 38.6666 45.3333V49.3333ZM41.3333 38.6667H46.6666V49.3333H41.3333V38.6667ZM49.3333 38.6667H54.6666V49.3333H49.3333V38.6667ZM17.3333 38.6667H22.6666V49.3333H17.3333V38.6667ZM9.33325 38.6667H14.6666V49.3333H9.33325V38.6667ZM30.6666 36H25.3333V30.6667C25.3333 29.2 26.5333 28 27.9999 28C29.4666 28 30.6666 29.2 30.6666 30.6667V36ZM38.6666 36H33.3333V30.6667C33.3333 29.2 34.5333 28 35.9999 28C37.4666 28 38.6666 29.2 38.6666 30.6667V36ZM46.6666 36H41.3333V30.6667C41.3333 29.2 42.5333 28 43.9999 28C45.4666 28 46.6666 29.2 46.6666 30.6667V36ZM54.6666 36H49.3333V30.6667C49.3333 29.2 50.5333 28 51.9999 28C53.4666 28 54.6666 29.2 54.6666 30.6667V36ZM22.6666 36H17.3333V30.6667C17.3333 29.2 18.5333 28 19.9999 28C21.4666 28 22.6666 29.2 22.6666 30.6667V36ZM14.6666 36H9.33325V30.6667C9.33325 29.2 10.5333 28 11.9999 28C13.4666 28 14.6666 29.2 14.6666 30.6667V36Z" fill="#0288D1"/>
<path d="M33.3333 20H36V22.6667H33.3333V20ZM38.6667 20H41.3333V22.6667H38.6667V20ZM44 20H46.6667V22.6667H44V20ZM12 20H14.6667V22.6667H12V20ZM17.3333 20H20V22.6667H17.3333V20ZM22.6667 20H25.3333V22.6667H22.6667V20ZM49.3333 20H52V22.6667H49.3333V20ZM28 20H30.6667V22.6667H28V20Z" fill="#0277BD"/>
</svg>
