<svg width="64" height="64" viewBox="0 0 64 64" fill="none" xmlns="http://www.w3.org/2000/svg">
<path d="M10.6665 51.9998V11.9998C10.6665 9.0665 13.0665 6.6665 15.9998 6.6665H47.9998C50.9332 6.6665 53.3332 9.0665 53.3332 11.9998V51.9998C53.3332 54.9332 50.9332 57.3332 47.9998 57.3332H15.9998C13.0665 57.3332 10.6665 54.9332 10.6665 51.9998Z" fill="#42A5F5"/>
<path d="M14.6667 45.3335C13.9594 45.3335 13.2811 45.6144 12.781 46.1145C12.281 46.6146 12 47.2929 12 48.0002C12 48.7074 12.281 49.3857 12.781 49.8858C13.2811 50.3859 13.9594 50.6668 14.6667 50.6668C15.3739 50.6668 16.0522 50.3859 16.5523 49.8858C17.0524 49.3857 17.3333 48.7074 17.3333 48.0002C17.3333 47.2929 17.0524 46.6146 16.5523 46.1145C16.0522 45.6144 15.3739 45.3335 14.6667 45.3335ZM14.6667 34.6668C13.9594 34.6668 13.2811 34.9478 12.781 35.4479C12.281 35.948 12 36.6263 12 37.3335C12 38.0407 12.281 38.719 12.781 39.2191C13.2811 39.7192 13.9594 40.0002 14.6667 40.0002C15.3739 40.0002 16.0522 39.7192 16.5523 39.2191C17.0524 38.719 17.3333 38.0407 17.3333 37.3335C17.3333 36.6263 17.0524 35.948 16.5523 35.4479C16.0522 34.9478 15.3739 34.6668 14.6667 34.6668ZM14.6667 24.0002C13.9594 24.0002 13.2811 24.2811 12.781 24.7812C12.281 25.2813 12 25.9596 12 26.6668C12 27.3741 12.281 28.0524 12.781 28.5524C13.2811 29.0525 13.9594 29.3335 14.6667 29.3335C15.3739 29.3335 16.0522 29.0525 16.5523 28.5524C17.0524 28.0524 17.3333 27.3741 17.3333 26.6668C17.3333 25.9596 17.0524 25.2813 16.5523 24.7812C16.0522 24.2811 15.3739 24.0002 14.6667 24.0002ZM14.6667 13.3335C13.9594 13.3335 13.2811 13.6144 12.781 14.1145C12.281 14.6146 12 15.2929 12 16.0002C12 16.7074 12.281 17.3857 12.781 17.8858C13.2811 18.3859 13.9594 18.6668 14.6667 18.6668C15.3739 18.6668 16.0522 18.3859 16.5523 17.8858C17.0524 17.3857 17.3333 16.7074 17.3333 16.0002C17.3333 15.2929 17.0524 14.6146 16.5523 14.1145C16.0522 13.6144 15.3739 13.3335 14.6667 13.3335Z" fill="#1E88E5"/>
<path d="M14.6667 49.3332H9.33333C8.53333 49.3332 8 48.7998 8 47.9998C8 47.1998 8.53333 46.6665 9.33333 46.6665H14.6667C15.4667 46.6665 16 47.1998 16 47.9998C16 48.7998 15.4667 49.3332 14.6667 49.3332ZM14.6667 38.6665H9.33333C8.53333 38.6665 8 38.1332 8 37.3332C8 36.5332 8.53333 35.9998 9.33333 35.9998H14.6667C15.4667 35.9998 16 36.5332 16 37.3332C16 38.1332 15.4667 38.6665 14.6667 38.6665ZM14.6667 27.9998H9.33333C8.53333 27.9998 8 27.4665 8 26.6665C8 25.8665 8.53333 25.3332 9.33333 25.3332H14.6667C15.4667 25.3332 16 25.8665 16 26.6665C16 27.4665 15.4667 27.9998 14.6667 27.9998ZM14.6667 17.3332H9.33333C8.53333 17.3332 8 16.7998 8 15.9998C8 15.1998 8.53333 14.6665 9.33333 14.6665H14.6667C15.4667 14.6665 16 15.1998 16 15.9998C16 16.7998 15.4667 17.3332 14.6667 17.3332Z" fill="#CFD8DC"/>
<path d="M21.3335 16H45.3335V29.3333H21.3335V16Z" fill="#FAFAFA"/>
<path d="M21.3335 39.9998H45.3335V42.6665H21.3335V39.9998ZM21.3335 45.3332H41.3335V47.9998H21.3335V45.3332ZM21.3335 34.6665H29.3335V37.3332H21.3335V34.6665ZM32.0002 34.6665H45.3335V37.3332H32.0002V34.6665Z" fill="#1565C0"/>
</svg>
