<svg width="64" height="64" viewBox="0 0 64 64" fill="none" xmlns="http://www.w3.org/2000/svg">
<path d="M46.6666 54.6665H17.3333V6.6665H46.6666V54.6665Z" fill="#90CAF9"/>
<path d="M49.3334 54.6665H14.6667V10.6665H49.3334V54.6665Z" fill="#42A5F5"/>
<path d="M52 54.6665H12V14.6665H52V54.6665Z" fill="#90CAF9"/>
<path d="M16 21.3335H26.6667V24.0002H16V21.3335ZM29.3333 21.3335H38.6667V24.0002H29.3333V21.3335ZM16 26.6668H32V29.3335H16V26.6668Z" fill="#1976D2"/>
<path d="M37.3333 38.6665V41.3332C37.3333 44.2785 34.9453 46.6665 32 46.6665C29.0547 46.6665 26.6667 44.2785 26.6667 41.3332V38.6665H12V54.6665H52V38.6665H37.3333Z" fill="#64B5F6"/>
<path d="M32 49.3335C27.5827 49.3335 24 45.7508 24 41.3335H9.33333C8.59733 41.3335 8 41.9308 8 42.6668V53.3335C8 55.5428 9.79067 57.3335 12 57.3335H52C54.2093 57.3335 56 55.5428 56 53.3335V42.6668C56 41.9308 55.4027 41.3335 54.6667 41.3335H40C40 45.7508 36.4173 49.3335 32 49.3335Z" fill="#FFC107"/>
</svg>
