<svg width="52" height="52" viewBox="0 0 52 52" fill="none" xmlns="http://www.w3.org/2000/svg">
<g clip-path="url(#clip0)">
<rect width="52" height="52" fill="white"/>
<path d="M25.9998 0.00537109V0.397451L17.8878 8.50945H8.11182L8.6079 8.01233L16.6149 0.00537109H25.9998Z" fill="#F87797"/>
<path d="M43.888 8.50945H34.112L26 0.397451V0.00537109H35.385L43.3919 8.01233L43.888 8.50945Z" fill="#0094C3"/>
<path d="M8.112 18.2842L0 26.3973V16.6213L7.61592 9.00536L8.112 8.50928V18.2842Z" fill="#A18BC4"/>
<path d="M25.6078 52.0057H15.8318L8.11084 44.2847H17.8879L25.6078 52.0057Z" fill="#0094C3"/>
<path d="M8.112 34.5095V44.2844H8.11096L0 36.1735V26.3975L8.112 34.5095Z" fill="#00B69B"/>
<path d="M52.0002 16.6213V26.3973L43.8882 18.2842V8.50928L44.3843 9.00536L52.0002 16.6213Z" fill="#00B69B"/>
<path d="M52.0002 26.3975V36.1735L43.8892 44.2855L43.8882 44.2844V34.5095L52.0002 26.3975Z" fill="#A18BC2"/>
<path d="M43.889 44.2857L36.1681 52.0057H26.3921L34.112 44.2847H43.888L43.889 44.2857Z" fill="#F87797"/>
<path d="M17.8878 44.2842H8.11182V34.5093L17.8878 44.2842Z" fill="#A18BC4"/>
<path d="M17.8878 8.50928L8.11182 18.2843V8.50928H17.8878Z" fill="#F87797"/>
<path d="M43.8878 8.50928V18.2843L34.1118 8.50928H43.8878Z" fill="#A18BC4"/>
<path d="M43.8878 34.5093V44.2842H34.1118L43.8878 34.5093Z" fill="#F87797"/>
<path d="M8.112 18.2847V34.5097L0 26.3977L8.112 18.2847Z" fill="#C3EEF4"/>
<path d="M34.1122 8.50946H17.8882L26.0002 0.397461L34.1122 8.50946Z" fill="#E6CBF6"/>
<path d="M34.1122 44.2847L26.3923 52.0056L26.0002 52.3977L25.6081 52.0056L17.8882 44.2847H34.1122Z" fill="#A6DED5"/>
<path d="M52.0002 26.3977L43.8882 34.5097V18.2847L52.0002 26.3977Z" fill="#C3EEF4"/>
<path opacity="0.54" d="M8.11182 34.5093L17.8878 44.2842H8.11182V34.5093Z" fill="white"/>
<path opacity="0.54" d="M8.11182 8.50928H17.8878L8.11182 18.2843V8.50928Z" fill="white"/>
<path opacity="0.54" d="M43.8878 8.50928V18.2843L34.1118 8.50928H43.8878Z" fill="white"/>
<path opacity="0.54" d="M34.1118 44.2842L43.8878 34.5093V44.2842H34.1118Z" fill="#71C2FF"/>
</g>
<defs>
<clipPath id="clip0">
<rect width="52" height="52" fill="white"/>
</clipPath>
</defs>
</svg>
