<svg width="64" height="64" viewBox="0 0 64 64" fill="none" xmlns="http://www.w3.org/2000/svg">
<path d="M58.6668 56H5.3335L9.3335 36H54.6668L58.6668 56Z" fill="#CFD8DC"/>
<path d="M48.0002 47.9998H16.0002C14.5335 47.9998 13.3335 46.7998 13.3335 45.3332C13.3335 43.8665 14.5335 42.6665 16.0002 42.6665H48.0002C49.4668 42.6665 50.6668 43.8665 50.6668 45.3332C50.6668 46.7998 49.4668 47.9998 48.0002 47.9998Z" fill="#455A64"/>
<path d="M30.6667 8L41.008 20.0653C41.3333 20.716 41.3333 21.692 41.3333 22.6667L36.4213 33.592C36.0987 35.2187 34.9613 36.6827 33.3333 37.3333C32.392 37.6867 33.5213 36.456 30.74 37.3333C30.7773 35.1027 29.948 32.8613 28.2453 31.16C27.948 30.8613 27.6307 30.6013 27.3027 30.3573L31.576 28.9587L31.2507 22.6667L24 17.3333C24 17.3333 13.3333 29.3333 12 8H30.6667Z" fill="#FFA726"/>
<path d="M20 22.6665H44V46.6665H20V22.6665Z" fill="#64B5F6"/>
<path d="M29.6253 37.0413C27.8187 38.5027 25.4853 37.8173 24.0987 36.2973L13.3333 24C12.6387 23.2413 12 19.608 12 18.7787C12 14.7787 12 8 12 8L25.3333 17.3333V24L29.8413 30.7187C31.7347 33.1693 31.4427 35.524 29.6253 37.0413Z" fill="#FFA726"/>
<path d="M25.4999 35.6016C26.4505 36.5336 27.9759 36.5216 28.9119 35.5709C29.8439 34.6189 29.8305 33.0923 28.8785 32.1589C27.9292 31.2256 24.5492 34.6683 25.4999 35.6016Z" fill="#FFCDD2"/>
<path d="M20 45.3335H44V48.0002H20V45.3335Z" fill="#1E88E5"/>
<path d="M31.2508 22.6665L25.3335 18.3145V22.6665H31.2508Z" fill="#D68022"/>
</svg>
