<svg width="64" height="64" viewBox="0 0 64 64" fill="none" xmlns="http://www.w3.org/2000/svg">
<path d="M20.377 17.3403L22.8812 16.4239L26.8675 27.3175L24.3632 28.2339L20.377 17.3403Z" fill="#9C2C0A"/>
<path d="M37.1323 32.6528L41.118 21.7591L43.6223 22.6753L39.6366 33.5691L37.1323 32.6528Z" fill="#9C2C0A"/>
<path d="M52.2666 27.7332L32 20.7999C31.3333 20.5332 30.9333 19.8665 31.2 19.0665L33.7333 11.4665C34 10.7999 34.6667 10.3999 35.4667 10.6665L55.7333 17.4665C56.4 17.7332 56.8 18.3999 56.5333 19.1999L54 26.7999C53.7333 27.5999 52.9333 27.8665 52.2666 27.7332Z" fill="#D32F2F"/>
<path d="M42.1785 20.0488L43.031 17.5221L45.5577 18.3747L44.7052 20.9014L42.1785 20.0488Z" fill="#EF9A9A"/>
<path d="M47.2366 21.7852L48.0891 19.2584L50.6158 20.111L49.7633 22.6377L47.2366 21.7852Z" fill="#EF9A9A"/>
<path d="M37.1221 18.314L37.9746 15.7873L40.5013 16.6398L39.6488 19.1665L37.1221 18.314Z" fill="#EF9A9A"/>
<path d="M26.6666 26.6667L24.1333 26L21.8666 33.7333C21.7333 34.2667 21.3333 34.8 20.9333 35.0667L16.2666 38.6667H10.6666C7.73325 38.6667 5.33325 41.0667 5.33325 44V57.3333H18.6666V45.6L25.8666 37.8667C26.1333 37.6 26.3999 37.2 26.5333 36.8L28.5333 29.8667C28.9333 28.5333 28.1333 27.0667 26.6666 26.6667ZM53.3333 44H47.0666L43.0666 40.4C42.6666 40 42.3999 39.6 42.2666 39.0667L39.9999 30L37.3333 30.6667C35.8666 31.0667 35.0666 32.5333 35.3333 33.8667L37.3333 42.1333C37.4666 42.5333 37.5999 42.9333 37.9999 43.3333L43.8666 49.8667V57.3333H58.5333V49.3333C58.6666 46.4 56.2666 44 53.3333 44Z" fill="#607D8B"/>
<path d="M12.0001 25.3335C10.5856 25.3335 9.22904 25.8954 8.22884 26.8956C7.22865 27.8958 6.66675 29.2523 6.66675 30.6668C6.66675 32.0813 7.22865 33.4379 8.22884 34.4381C9.22904 35.4383 10.5856 36.0002 12.0001 36.0002C13.4146 36.0002 14.7711 35.4383 15.7713 34.4381C16.7715 33.4379 17.3334 32.0813 17.3334 30.6668C17.3334 29.2523 16.7715 27.8958 15.7713 26.8956C14.7711 25.8954 13.4146 25.3335 12.0001 25.3335ZM50.6667 30.6668C49.2523 30.6668 47.8957 31.2287 46.8955 32.2289C45.8953 33.2291 45.3334 34.5857 45.3334 36.0002C45.3334 37.4146 45.8953 38.7712 46.8955 39.7714C47.8957 40.7716 49.2523 41.3335 50.6667 41.3335C52.0812 41.3335 53.4378 40.7716 54.438 39.7714C55.4382 38.7712 56.0001 37.4146 56.0001 36.0002C56.0001 34.5857 55.4382 33.2291 54.438 32.2289C53.4378 31.2287 52.0812 30.6668 50.6667 30.6668Z" fill="#FFB74D"/>
<path d="M32.6667 16.1334L12.4 22.9334C11.7333 23.2 10.9333 22.8 10.6667 22.1334L8.13333 14.5334C7.99999 13.7334 8.26666 13.0667 9.06666 12.8L29.3333 6.00003C30 5.73337 30.8 6.13337 31.0667 6.80003L33.6 14.4C33.7333 15.0667 33.3333 15.8667 32.6667 16.1334Z" fill="#F44336"/>
<path d="M19.1006 13.5742L21.6281 12.7239L22.4783 15.2514L19.9509 16.1017L19.1006 13.5742Z" fill="#FFCDD2"/>
<path d="M24.1995 11.9653L26.7269 11.115L27.5772 13.6425L25.0498 14.4928L24.1995 11.9653Z" fill="#FFCDD2"/>
<path d="M14.0461 15.3091L16.5736 14.4588L17.4239 16.9863L14.8964 17.8366L14.0461 15.3091Z" fill="#FFCDD2"/>
</svg>
