<svg width="48" height="48" viewBox="0 0 48 48" fill="none" xmlns="http://www.w3.org/2000/svg">
<g clip-path="url(#clip0)">
<path d="M40 45H8V3H30L40 13V45Z" fill="#90CAF9"/>
<path d="M38.5 14H29V4.5L38.5 14Z" fill="#E1F5FE"/>
<path d="M16 21H33V23H16V21ZM16 25H29V27H16V25ZM16 29H33V31H16V29ZM16 33H29V35H16V33Z" fill="#1976D2"/>
<path d="M47 38C47 43.5225 42.5225 48 37 48C31.4775 48 27 43.5225 27 38C27 32.4775 31.4775 28 37 28C42.5225 28 47 32.4775 47 38Z" fill="#C8E6C9"/>
<path d="M42.293 33.293L35.508 40.086L32.707 37.293L31.293 38.707L35.51 42.914L43.7075 34.707L42.293 33.293Z" fill="#4CAF50"/>
</g>
<defs>
<clipPath id="clip0">
<rect width="48" height="48" fill="white"/>
</clipPath>
</defs>
</svg>
