<svg width="24" height="24" viewBox="0 0 24 24" fill="none" xmlns="http://www.w3.org/2000/svg">
<path d="M14.549 14.393C13.9105 15.073 13.006 15.5 12 15.5C10.067 15.5 8.5 13.933 8.5 12C8.5 10.067 10.067 8.5 12 8.5V2C6.501 2 2 6.501 2 12C2 17.499 6.501 22 12 22C14.8885 22 17.499 20.778 19.2785 18.834L14.549 14.393Z" fill="#00BCD4"/>
<path d="M12 2V8.5C13.933 8.5 15.5 10.067 15.5 12H22C22 6.501 17.499 2 12 2Z" fill="#448AFF"/>
<path d="M15.5001 12C15.5001 13.116 14.9761 14.108 14.1621 14.7485L18.1666 19.8615C20.4976 18.031 22.0001 15.1935 22.0001 12H15.5001Z" fill="#3F51B5"/>
</svg>
