<svg width="48" height="48" viewBox="0 0 48 48" fill="none" xmlns="http://www.w3.org/2000/svg">
<g clip-path="url(#clip0)">
<path d="M40 45H8V3H30L40 13V45Z" fill="#90CAF9"/>
<path d="M38.5 14H29V4.5L38.5 14Z" fill="#E1F5FE"/>
<path d="M16 21H33V23H16V21ZM16 25H29V27H16V25ZM16 29H33V31H16V29ZM16 33H29V35H16V33Z" fill="#1976D2"/>
<path d="M46 38C46 43.5225 41.5225 48 36 48C30.4775 48 26 43.5225 26 38C26 32.4775 30.4775 28 36 28C41.5225 28 46 32.4775 46 38Z" fill="#F44336"/>
<path d="M38.8278 33.7578L40.2418 35.1718L33.1718 42.2418L31.7578 40.8278L38.8278 33.7578Z" fill="white"/>
<path d="M40.2418 40.8278L38.8278 42.2418L31.7578 35.1718L33.1718 33.7578L40.2418 40.8278Z" fill="white"/>
</g>
<defs>
<clipPath id="clip0">
<rect width="48" height="48" fill="white"/>
</clipPath>
</defs>
</svg>
