<svg width="48" height="48" viewBox="0 0 48 48" fill="none" xmlns="http://www.w3.org/2000/svg">
<path d="M6 20V39C6 41.199 7.8 43 10 43H38C40.2 43 42 41.199 42 39V20C42 17.801 40.2 16 38 16H10C7.8 16 6 17.801 6 20Z" fill="#78909C"/>
<path d="M34 30C34 35.5 29.5 40 24 40C18.5 40 14 35.5 14 30C14 24.5 18.5 20 24 20C29.5 20 34 24.5 34 30Z" fill="#FFD740"/>
<path d="M31 30C31 33.9 27.9 37 24 37C20.1 37 17 33.9 17 30C17 26.1 20.1 23 24 23C27.9 23 31 26.1 31 30Z" fill="white"/>
<path d="M28.4 33.1L25.5 30.2C25.5 30.1 25.5 30.1 25.5 30C25.5 29.6 25.3 29.2 25 28.9V25H23V28.9C22.7 29.2 22.5 29.6 22.5 30C22.5 30.8 23.2 31.5 24 31.5H24.1L27 34.4L28.4 33.1Z" fill="black"/>
<path d="M13 5H35V16H13V5Z" fill="#90CAF9"/>
<path d="M11 16C11 17.105 11.895 18 13 18H35C36.105 18 37 17.105 37 16H11Z" fill="#37474F"/>
<path d="M17 8H19V10H17V8ZM21 8H31V10H21V8ZM17 12H19V14H17V12ZM21 12H31V14H21V12Z" fill="#42A5F5"/>
</svg>
