<svg width="48" height="48" viewBox="0 0 48 48" fill="none" xmlns="http://www.w3.org/2000/svg">
<path d="M42 38H17V5H34L42 13V38Z" fill="#42A5F5"/>
<path d="M40.5 14H33V6.5L40.5 14Z" fill="#E1F5FE"/>
<path d="M22 19H38V21H22V19ZM22 23H34V25H22V23ZM22 27H38V29H22V27ZM22 31H34V33H22V31Z" fill="#1565C0"/>
<path d="M31 43H6V10H23L31 18V43Z" fill="#90CAF9"/>
<path d="M29.5 19H22V11.5L29.5 19Z" fill="#E1F5FE"/>
<path d="M11 24H26V26H11V24ZM11 28H22V30H11V28ZM11 32H26V34H11V32ZM11 36H22V38H11V36Z" fill="#1976D2"/>
</svg>
