<svg width="36" height="36" viewBox="0 0 36 36" fill="none" xmlns="http://www.w3.org/2000/svg">
<path d="M32.437 5.09159C31.9188 4.65245 31.1048 4.58962 30.2633 4.92726H30.2619C29.3768 5.28217 5.20706 15.6421 4.22314 16.0653C4.04418 16.1275 2.48124 16.7102 2.64223 18.0083C2.78595 19.1787 4.04211 19.6634 4.1955 19.7193L10.3402 21.8218C10.7479 23.1779 12.2507 28.1811 12.583 29.25C12.7903 29.9163 13.1282 30.7918 13.7203 30.972C14.2399 31.1723 14.7568 30.9893 15.0912 30.7269L18.8479 27.2448L24.9125 31.9711L25.0569 32.0575C25.4687 32.2397 25.8632 32.3309 26.2398 32.3309C26.5307 32.3309 26.8098 32.2763 27.0766 32.1672C27.9852 31.7944 28.3486 30.9292 28.3866 30.8312L32.9165 7.30181C33.1929 6.04514 32.8087 5.40576 32.437 5.09159ZM15.7594 22.6628L13.6865 28.1866L11.6136 21.2819L27.5056 9.54379L15.7594 22.6628Z" fill="#6C6C6C"/>
</svg>
