<svg width="24" height="24" viewBox="0 0 24 24" fill="none" xmlns="http://www.w3.org/2000/svg">
<g clip-path="url(#clip0)">
<path d="M19.1733 8.6841V1.27494C19.1736 0.585001 19.733 0.0256347 20.4229 0.0253906H22.0441C22.7343 0.0253906 23.2937 0.584757 23.2937 1.27494V8.9916C23.2939 9.68178 22.7343 10.2411 22.0441 10.2411H20.4229C19.7327 10.2411 19.1733 9.68154 19.1733 8.9916V8.6841Z" fill="#FEDB41"/>
<path d="M14.9714 9.16138L14.1999 9.249C12.7903 9.40909 11.3672 9.40861 9.9576 9.24778L9.03484 9.1421L4.81641 8.65985V1.60042H4.82959L9.8939 1.00249C11.3455 0.830922 12.8123 0.829946 14.2641 0.999318L19.1737 1.57235V8.68475L14.9714 9.16138Z" fill="url(#paint0_linear)"/>
<path d="M14.9712 14.0439V21.0951C14.9712 22.6714 13.6424 24.0003 12.0031 24.0003C11.2175 24.0005 10.4633 23.6908 9.90447 23.1388C9.35218 22.6016 9.03882 21.8653 9.03467 21.0951V14.0439H14.9712Z" fill="url(#paint1_linear)"/>
<path d="M14.9712 9.16088V14.0436H9.03467V9.1416L9.95743 9.24728C11.3671 9.40811 12.7901 9.40859 14.1998 9.2485L14.9712 9.16088Z" fill="url(#paint2_linear)"/>
<path d="M4.81612 8.65944V8.96621C4.81588 9.65615 4.25651 10.2155 3.56658 10.2158H1.94535C1.25517 10.2158 0.695801 9.65615 0.695801 8.96621V1.24954C0.695557 0.559367 1.25517 -0.000243972 1.94535 7.97947e-08H3.56658C4.25676 7.97947e-08 4.81612 0.559367 4.81612 1.24954V8.65944Z" fill="#FEDB41"/>
</g>
<defs>
<linearGradient id="paint0_linear" x1="19.1737" y1="0.670768" x2="6.69181" y2="11.5741" gradientUnits="userSpaceOnUse">
<stop stop-color="#6CB6FF"/>
<stop offset="1" stop-color="#0D82FE"/>
</linearGradient>
<linearGradient id="paint1_linear" x1="14.9712" y1="13.8069" x2="6.66127" y2="16.3681" gradientUnits="userSpaceOnUse">
<stop stop-color="#6CB6FF"/>
<stop offset="1" stop-color="#0D82FE"/>
</linearGradient>
<linearGradient id="paint2_linear" x1="8.85477" y1="14.0436" x2="15.4448" y2="10.8278" gradientUnits="userSpaceOnUse">
<stop stop-color="#5DB7EC"/>
<stop offset="1" stop-color="#BAFBB5"/>
</linearGradient>
<clipPath id="clip0">
<rect width="24" height="24" fill="white"/>
</clipPath>
</defs>
</svg>
