<svg width="45" height="45" viewBox="0 0 45 45" fill="none" xmlns="http://www.w3.org/2000/svg">
<path d="M35.6246 3.75H16.8746C14.8065 3.75 13.1246 5.43187 13.1246 7.5V17.9738L4.29898 26.7994C4.03683 27.0616 3.85832 27.3957 3.78601 27.7593C3.71369 28.123 3.75082 28.4999 3.8927 28.8425C4.03459 29.185 4.27485 29.4778 4.58312 29.6839C4.89138 29.8899 5.25382 29.9999 5.6246 30V39.375C5.6246 39.8723 5.82214 40.3492 6.17377 40.7008C6.52541 41.0525 7.00232 41.25 7.4996 41.25H37.4996C37.9969 41.25 38.4738 41.0525 38.8254 40.7008C39.1771 40.3492 39.3746 39.8723 39.3746 39.375V7.5C39.3746 5.43187 37.6927 3.75 35.6246 3.75ZM20.6246 37.5H9.3746V27.0262L14.9996 21.4012L20.6246 27.0262V37.5ZM35.6246 37.5H24.3746V30C24.7458 30.0008 25.1088 29.8913 25.4177 29.6855C25.7265 29.4796 25.9673 29.1866 26.1093 28.8436C26.2513 28.5007 26.2883 28.1233 26.2155 27.7593C26.1426 27.3954 25.9633 27.0612 25.7002 26.7994L16.8746 17.9738V7.5H35.6246V37.5Z" fill="#272727"/>
<path d="M20.625 11.25H24.375V15H20.625V11.25ZM28.125 11.25H31.875V15H28.125V11.25ZM28.125 18.8081H31.875V22.5H28.125V18.8081ZM28.125 26.25H31.875V30H28.125V26.25ZM13.125 28.125H16.875V31.875H13.125V28.125Z" fill="black"/>
</svg>
