<svg width="24" height="24" viewBox="0 0 24 24" fill="none" xmlns="http://www.w3.org/2000/svg">
<g clip-path="url(#clip0)">
<path d="M19.4481 2.06875H4.96533C4.96533 1.15463 5.70638 0.413574 6.6205 0.413574H19.4481V2.06875Z" fill="#88B337"/>
<path d="M19.8618 0C20.3189 0 20.6894 0.3705 20.6894 0.827586V2.48276H19.0342V0.827586C19.0342 0.3705 19.4047 0 19.8618 0Z" fill="#88B337"/>
<path d="M18.2067 24H5.79287L4.1377 4.55176H19.8618L18.2067 24Z" fill="#6A9923"/>
<path d="M4.13784 2.06885H19.862C20.7761 2.06885 21.5171 2.8099 21.5171 3.72402V4.55161H2.48267V3.72402C2.48267 2.8099 3.22372 2.06885 4.13784 2.06885Z" fill="#77A226"/>
<path d="M19.7563 5.79314L19.8618 4.55176H4.1377L4.24321 5.79314H19.7563Z" fill="#618C20"/>
<path d="M5.73145 23.2819L5.79269 23.9999H18.2065L19.5331 8.41309C15.4233 16.8085 9.75062 21.1348 5.73145 23.2819Z" fill="#618C20"/>
<path d="M14.3278 12.414C14.185 12.4142 14.0522 12.3406 13.9765 12.2195L11.9998 9.05689L11.5231 9.81951C11.402 10.0138 11.1464 10.0731 10.9521 9.95193C10.7578 9.83079 10.6985 9.57517 10.8197 9.38089L11.6473 8.05675C11.7838 7.86248 12.052 7.81572 12.2462 7.95227C12.2868 7.98082 12.3222 8.01615 12.3507 8.05675L14.6783 11.7809C14.7994 11.9747 14.7405 12.23 14.5467 12.3511C14.4811 12.3921 14.4052 12.4139 14.3278 12.414Z" fill="#88B337"/>
<path d="M9.51721 15.3108H7.86204C7.63352 15.3108 7.44824 15.1255 7.44824 14.897C7.44824 14.8195 7.47002 14.7434 7.51114 14.6777L9.83873 10.9536C9.95986 10.7593 10.2155 10.7 10.4098 10.8211C10.604 10.9423 10.6633 11.1979 10.5422 11.3922L8.60686 14.4832H9.51721C9.74573 14.4832 9.931 14.6685 9.931 14.897C9.931 15.1255 9.74573 15.3108 9.51721 15.3108Z" fill="#88B337"/>
<path d="M16.1381 15.3107H11.1726C10.9441 15.3107 10.7588 15.1255 10.7588 14.897C10.7588 14.6684 10.9441 14.4832 11.1726 14.4832H15.3647L14.9662 13.8852C14.8394 13.6951 14.8907 13.4381 15.0809 13.3113C15.271 13.1845 15.528 13.2358 15.6548 13.4259L16.4824 14.6673C16.6092 14.8574 16.5579 15.1143 16.3678 15.2412C16.2998 15.2865 16.2199 15.3107 16.1381 15.3107Z" fill="#88B337"/>
<path d="M14.4825 12.414H12.8274C12.5988 12.414 12.4136 12.2288 12.4136 12.0002C12.4136 11.7717 12.5988 11.5864 12.8274 11.5864H14.1594L14.4949 10.2445C14.5521 10.0232 14.7778 9.89021 14.9991 9.94731C15.218 10.0038 15.3511 10.2258 15.2977 10.4456L14.8839 12.1008C14.8378 12.2849 14.6723 12.414 14.4825 12.414Z" fill="#88B337"/>
<path d="M12.4139 16.5519C12.3041 16.5519 12.1989 16.5082 12.1213 16.4306L10.8799 15.1892C10.7184 15.0277 10.7184 14.7657 10.8799 14.6041L12.1213 13.3628C12.2857 13.204 12.5476 13.2085 12.7064 13.3729C12.8613 13.5332 12.8613 13.7875 12.7064 13.9479L11.7576 14.8967L12.7064 15.8455C12.868 16.0072 12.868 16.2691 12.7063 16.4307C12.6288 16.5083 12.5236 16.5519 12.4139 16.5519Z" fill="#88B337"/>
<path d="M10.7586 13.2415C10.569 13.2413 10.4038 13.1123 10.3577 12.9283L10.0217 11.5864H8.68967C8.46115 11.5864 8.27588 11.4011 8.27588 11.1726C8.27588 10.9441 8.46115 10.7588 8.68967 10.7588H10.3448C10.5346 10.7588 10.7001 10.8879 10.7462 11.072L11.16 12.7272C11.2156 12.9489 11.0809 13.1736 10.8592 13.2291C10.8263 13.2375 10.7926 13.2417 10.7586 13.2415Z" fill="#88B337"/>
<path d="M18.2071 24.0001C19.8068 24.0001 21.1037 22.7033 21.1037 21.1036C21.1037 19.5039 19.8068 18.207 18.2071 18.207C16.6074 18.207 15.3105 19.5039 15.3105 21.1036C15.3105 22.7033 16.6074 24.0001 18.2071 24.0001Z" fill="#595959"/>
<path d="M18.207 21.9311C18.664 21.9311 19.0346 21.5605 19.0346 21.1035C19.0346 20.6464 18.664 20.2759 18.207 20.2759C17.7499 20.2759 17.3794 20.6464 17.3794 21.1035C17.3794 21.5605 17.7499 21.9311 18.207 21.9311Z" fill="#CFCFCF"/>
</g>
<defs>
<clipPath id="clip0">
<rect width="24" height="24" fill="white"/>
</clipPath>
</defs>
</svg>
