<svg width="36" height="36" viewBox="0 0 36 36" fill="none" xmlns="http://www.w3.org/2000/svg">
<path d="M32.8299 9.1823C31.7271 9.66763 30.5443 9.99456 29.3006 10.1435C30.57 9.38818 31.5449 8.19145 32.0025 6.76865C30.8161 7.467 29.4995 7.97488 28.101 8.24781C26.9815 7.06116 25.3847 6.32129 23.6183 6.32129C20.2251 6.32129 17.4748 9.05295 17.4748 12.4218C17.4748 12.8995 17.5297 13.3646 17.6355 13.812C12.5302 13.5575 8.00323 11.1284 4.9727 7.43733C4.44402 8.34037 4.14174 9.38877 4.14174 10.506C4.14174 12.6224 5.2242 14.489 6.87417 15.5849C5.86579 15.5528 4.92013 15.2781 4.09216 14.8207C4.09216 14.8468 4.09216 14.8717 4.09216 14.8984C4.09216 17.8555 6.20929 20.3178 9.01759 20.8815C8.50384 21.0215 7.96082 21.095 7.40047 21.095C7.00381 21.095 6.61849 21.0571 6.24274 20.9847C7.0271 23.406 9.29418 25.1736 11.9818 25.2228C9.88081 26.8586 7.23201 27.8328 4.35321 27.8328C3.85559 27.8328 3.36813 27.8044 2.88843 27.7474C5.60533 29.4793 8.83598 30.488 12.3044 30.488C23.6039 30.488 29.7839 21.1918 29.7839 13.1321C29.7839 12.8662 29.7773 12.6016 29.7659 12.3417C30.9655 11.4814 32.0073 10.4057 32.8299 9.1823Z" fill="#6C6C6C"/>
</svg>
