<svg width="74" height="74" viewBox="0 0 74 74" fill="none" xmlns="http://www.w3.org/2000/svg">
<path d="M2.10393 7.98002C2.10393 4.89202 4.83593 1.96002 7.97193 2.02002C17.4679 2.04002 26.9639 1.98802 36.4599 2.04402C39.8639 2.40002 42.1839 5.94402 41.7719 9.24002C33.7159 9.24402 25.6559 9.22002 17.5999 9.24402C15.2199 9.16402 13.1199 10.432 11.3839 11.936C10.2959 12.792 9.15593 13.696 8.58793 15C7.44793 17.152 7.75593 19.652 7.73193 21.992C7.73593 28.5 7.76393 35.012 7.71593 41.52C4.77993 41.132 2.18793 38.624 2.10793 35.596C2.08393 26.392 2.09593 17.184 2.10393 7.98002Z" fill="#4FC0EF"/>
<path d="M11.3841 11.9357C13.1201 10.4317 15.2201 9.16373 17.6001 9.24373C25.6561 9.21973 33.7161 9.24373 41.7721 9.23973C41.7561 9.84773 41.7401 10.4557 41.7201 11.0637C34.0721 11.0437 26.4281 11.0837 18.7801 11.0437C17.3801 11.0437 15.9121 11.1157 14.6601 11.8197C12.5601 12.9157 11.1961 15.2157 11.2081 17.5797C11.1641 25.5517 11.2481 33.5197 11.2401 41.4917C10.6121 41.4917 9.98405 41.4877 9.35205 41.4877C9.37605 33.5197 9.34405 25.5557 9.36405 17.5917C9.31605 15.5197 10.2361 13.5997 11.3841 11.9357Z" fill="white"/>
<path d="M19.9361 22.3155C21.4761 19.6635 24.5841 18.2995 27.5761 18.3355C35.8801 18.3155 44.1801 18.3395 52.4801 18.3275C52.4561 18.9515 52.4321 19.5715 52.4161 20.1955C44.1441 20.2035 35.8761 20.2035 27.6041 20.1995C25.2721 20.1395 22.7921 21.1075 21.5721 23.1875C19.7961 26.0715 20.3281 29.6035 20.2481 32.8235C20.3361 39.1915 20.0641 45.5755 20.3881 51.9395L20.3001 52.0755C19.6641 52.2035 19.0081 52.2315 18.3601 52.2875C18.5001 46.0635 18.3401 39.8395 18.4441 33.6195C18.5681 29.8435 17.8401 25.7075 19.9361 22.3155Z" fill="white"/>
<path d="M14.6599 11.82C15.9119 11.116 17.3799 11.044 18.7799 11.044C26.4279 11.084 34.0719 11.044 41.7199 11.064C44.3039 11.168 47.1679 10.56 49.4559 12.112C51.5719 13.4 52.5959 15.912 52.4799 18.328C44.1799 18.34 35.8799 18.316 27.5759 18.336C24.5839 18.3 21.4759 19.664 19.9359 22.316C17.8399 25.708 18.5679 29.844 18.4439 33.62C18.3399 39.84 18.4999 46.064 18.3599 52.288C16.0119 52.336 13.5839 51.344 12.2959 49.312C10.6919 47.028 11.2679 44.1 11.2399 41.492C11.2479 33.52 11.1639 25.552 11.2079 17.58C11.1959 15.216 12.5599 12.916 14.6599 11.82Z" fill="#71B164"/>
<path d="M8.58817 15C9.15617 13.696 10.2962 12.792 11.3842 11.936C10.2362 13.6 9.31617 15.52 9.36417 17.592C9.34417 25.556 9.37617 33.52 9.35217 41.488C8.80817 41.496 8.26017 41.508 7.71617 41.52C7.76417 35.012 7.73617 28.5 7.73217 21.992C7.75617 19.652 7.44817 17.152 8.58817 15Z" fill="#71ADCA"/>
<path d="M21.572 23.1878C22.792 21.1078 25.272 20.1398 27.604 20.1998C35.876 20.2038 44.144 20.2038 52.416 20.1958C56.676 20.2118 60.936 20.1918 65.196 20.1998C68.9 20.1518 72.456 23.3878 72.384 27.1598C72.376 39.2958 72.376 51.4318 72.384 63.5678C72.356 64.9118 72.532 66.3278 71.996 67.5998C70.94 70.3278 68.168 72.3198 65.22 72.2998C52.68 72.3078 40.136 72.3038 27.596 72.2998C24.732 72.3438 22.008 70.4878 20.876 67.8798C20.064 66.1758 20.28 64.2438 20.256 62.4158C20.296 58.9718 20.196 55.5198 20.3 52.0758L20.388 51.9398C20.064 45.5758 20.336 39.1918 20.248 32.8238C20.328 29.6038 19.796 26.0718 21.572 23.1878ZM41.812 50.2078C40.668 51.6038 39.876 53.2718 38.56 54.5278C37.284 52.2918 36.384 49.5518 34.024 48.2038C32.832 48.1998 31.84 49.0478 30.98 49.7838C30.264 50.5078 29.392 51.3198 29.336 52.3958C30.516 54.3478 32.204 55.9718 33.156 58.0758C33.06 60.3678 34.824 62.7398 37.164 63.0158C38.648 63.2278 40.524 63.2958 41.52 61.9518C44.24 58.4278 46.176 54.3718 48.792 50.7718C51.588 46.9518 54.688 43.3598 57.932 39.9158C59.692 38.2558 60.488 35.8558 62.316 34.2478C62.208 34.1398 61.988 33.9158 61.88 33.8078C62.728 32.9358 63.668 32.1518 64.444 31.2158C64.888 30.4678 65.032 29.5878 65.3 28.7678C56.308 34.4798 48.316 41.7718 41.812 50.2078Z" fill="#0082C9"/>
<path d="M41.8119 50.2081C48.3159 41.7721 56.3079 34.4801 65.2999 28.7681C65.0319 29.5881 64.8879 30.4681 64.4439 31.2161C63.6679 32.1521 62.7279 32.9361 61.8799 33.8081C55.9439 39.5921 50.5799 45.9921 46.2719 53.0841C44.5679 55.7961 43.1079 58.6721 41.1439 61.2161C40.2119 62.6361 38.2759 62.3241 36.8319 62.2281C34.7159 61.9721 34.1199 59.6121 33.1559 58.0761C32.2039 55.9721 30.5159 54.3481 29.3359 52.3961C29.3919 51.3201 30.2639 50.5081 30.9799 49.7841C31.8399 49.0481 32.8319 48.2001 34.0239 48.2041C36.3839 49.5521 37.2839 52.2921 38.5599 54.5281C39.8759 53.2721 40.6679 51.6041 41.8119 50.2081Z" fill="#FEFEFE"/>
<path d="M46.2721 53.0841C50.5801 45.9921 55.9441 39.5921 61.8801 33.8081C61.9881 33.9161 62.2081 34.1401 62.3161 34.2481C60.4881 35.8561 59.6921 38.2561 57.9321 39.9161C54.6881 43.3601 51.5881 46.9521 48.7921 50.7721C46.1761 54.3721 44.2401 58.4281 41.5201 61.9521C40.5241 63.2961 38.6481 63.2281 37.1641 63.0161C34.8241 62.7401 33.0601 60.3681 33.1561 58.0761C34.1201 59.6121 34.7161 61.9721 36.8321 62.2281C38.2761 62.3241 40.2121 62.6361 41.1441 61.2161C43.1081 58.6721 44.5681 55.7961 46.2721 53.0841Z" fill="#0076B1"/>
</svg>
