<svg width="92" height="40" viewBox="0 0 92 40" fill="none" xmlns="http://www.w3.org/2000/svg">
<path d="M10.7572 0H16.7987C17.4518 0.248191 18.7516 0.738041 19.4047 0.986231C19.3786 2.22065 19.3459 3.45508 19.2937 4.6895C17.9678 4.6895 16.6485 4.69603 15.3292 4.69603C15.1332 3.22648 15.6035 1.12992 13.4351 1.26708C13.5134 2.51456 13.1412 3.87308 13.6179 5.06178C15.3814 6.27008 17.6608 6.66849 19.248 8.10538C19.5484 9.82312 19.3067 11.5735 19.1696 13.2978C15.9431 13.7289 12.6774 13.6635 9.44443 13.3109C9.03948 11.8478 8.89579 10.3391 8.92192 8.82383C10.3915 8.81077 11.8676 8.80424 13.3436 8.80424C13.3632 9.96028 13.3698 11.1098 13.3894 12.2658C15.6884 12.7296 15.5055 10.0452 14.663 8.71933C12.9322 7.58941 10.7833 7.15834 9.22236 5.78023C8.73251 4.27802 9.05255 2.63213 8.96764 1.07114C9.4183 0.803354 10.3066 0.267785 10.7572 0Z" fill="#2D8EC5"/>
<path d="M22.5199 0H26.4322C27.4576 3.97105 26.6477 8.13151 26.9285 12.1875C27.3074 12.1613 28.065 12.1026 28.4438 12.0764C28.4569 8.12498 28.4177 4.17352 28.4699 0.222065C29.9395 0.222065 31.4156 0.222065 32.8851 0.241659C32.8394 4.08861 33.0092 7.9421 32.8394 11.7891C32.8786 12.932 31.6442 13.4872 30.671 13.4807C28.2675 13.6505 25.8117 13.7681 23.4408 13.2782C22.2652 12.8145 22.4219 11.5017 22.3893 10.4828C22.4089 6.98853 22.3305 3.48773 22.5199 0Z" fill="#2D8EC5"/>
<path d="M35.354 0H39.2793C40.1741 2.85419 40.5333 5.83248 41.2257 8.73892C42.6299 6.00883 41.8592 2.69091 43.4724 0.00653133L42.5581 0H47.3651C46.5487 4.49356 45.3927 8.91527 44.4064 13.3696C42.3817 13.448 40.3635 13.4545 38.3388 13.4219C37.1893 8.98711 35.8765 4.5654 35.354 0Z" fill="#2D8EC5"/>
<path d="M51.3101 0H57.1818C57.861 0.241659 59.2261 0.718447 59.9053 0.960106C59.8923 2.20106 59.8596 3.44201 59.8139 4.6895C58.4619 4.6895 57.1099 4.70256 55.7579 4.70909C55.6077 3.6053 55.4248 2.50803 55.2485 1.41077C54.9154 1.44342 54.2623 1.50221 53.9292 1.53486C53.9161 2.69091 53.903 3.84696 53.903 5.00953C55.8037 6.11333 57.9394 6.79259 59.7682 8.03354C60.0686 9.78394 59.8335 11.5605 59.6637 13.3109C56.4633 13.7158 53.2238 13.6701 50.0169 13.3109C49.3442 11.9066 49.3376 10.3391 49.3703 8.8173C50.8529 8.81077 52.3355 8.81077 53.8247 8.8173C53.8377 9.91456 53.8508 11.0184 53.8704 12.1222C54.2557 12.1417 55.0199 12.1744 55.4052 12.194C55.3987 11.051 55.3791 9.91456 55.3595 8.77158C53.4001 7.82454 51.4407 6.87096 49.514 5.86514C49.4879 4.27802 49.4617 2.69744 49.4356 1.11033C49.9059 0.829479 50.8398 0.274316 51.3101 0Z" fill="#2D8EC5"/>
<path d="M75.5479 0H83.9276C83.9995 0.907855 84.1432 1.87449 83.6664 2.70397C82.2164 5.81289 80.9102 8.99365 79.2055 11.9719C80.8383 11.9589 82.4711 11.9654 84.1105 11.9589C84.1105 12.3312 84.104 13.0627 84.104 13.435C80.9559 13.448 77.8078 13.4611 74.6597 13.4219C75.3716 9.22877 77.9319 5.62348 79.4929 1.71121C78.069 1.69162 76.6452 1.65243 75.2214 1.61977C75.2997 1.21483 75.463 0.404943 75.5479 0Z" fill="#2D8EC5"/>
<path d="M63.1514 0.927293C64.0135 -0.0720012 65.4439 0.17619 66.6195 0.0782195C68.7488 0.13047 71.0609 -0.274472 72.9157 1.04486C72.9615 4.78078 73.0725 8.52977 72.8962 12.2657C72.7982 13.3891 71.3939 13.4936 70.5318 13.5328C68.0826 13.6699 65.6137 13.6373 63.1841 13.2715C62.1129 10.7178 62.7465 7.90929 62.5701 5.23144C62.655 3.80108 62.2631 2.18784 63.1514 0.927293ZM67.031 1.44327C66.9461 4.98978 67.0245 8.52976 66.9722 12.0763C67.5601 12.0697 68.1413 12.0632 68.7292 12.0632C68.6639 8.60814 68.7945 5.15307 68.6704 1.69799C68.2589 1.63268 67.4425 1.50858 67.031 1.44327Z" fill="#2D8EC5"/>
<path d="M0 16.0608C30.4817 15.9824 60.9569 16.0346 91.4387 16.0346V19.2089C60.9569 19.2285 30.4817 19.2481 0 19.1958V16.0608Z" fill="#2D8EC5"/>
<path d="M8.95446 25.3811C10.9596 25.0023 12.7426 23.9703 14.4538 22.9188C18.5294 25.1264 23.3952 26.4718 27.9868 25.2505C29.8351 24.8129 31.4222 23.7091 33.1596 22.9971C34.9753 24.0748 36.5624 25.6619 38.7112 26.0669C41.4413 26.7004 44.2628 25.1982 45.8173 22.971C47.0909 24.3622 48.567 25.7272 50.5068 26.0538C53.6288 26.8506 56.3458 24.6169 58.684 22.873C61.068 24.3818 63.7458 25.6031 66.6131 25.7011C70.3294 25.8775 73.9282 24.6822 77.2069 23.0298C78.7744 23.5719 80.1264 24.6169 81.7266 25.1002C84.8877 26.1061 88.2775 25.6358 91.4387 24.8847V25.0414C88.8 29.3521 83.2092 31.2005 78.3629 30.4037C75.241 30.1294 72.5892 28.3855 70.042 26.72C65.4309 31.5728 57.1884 31.8863 52.1135 27.6083C50.4088 28.4443 49.2201 30.4363 47.1105 30.4755C44.2759 31.0633 41.5589 29.6003 39.8411 27.4123C34.7859 32.0039 26.256 31.5793 21.6122 26.5959C18.6927 29.0909 14.9633 30.678 11.0771 30.567C6.7534 30.7433 2.8346 28.2875 0 25.2047V25.0349C2.97176 25.2962 5.98923 26.093 8.95446 25.3811Z" fill="#2D8EC5"/>
<path d="M10.522 35.367C14.2775 35.8765 18.549 36.301 21.6318 33.597C25.9098 36.2161 31.899 36.8301 36.0268 33.597C37.6793 34.9621 39.5929 36.4447 41.8789 36.1639C43.5313 36.1051 44.8898 34.9882 45.7846 33.6754C46.9537 34.949 48.4102 36.2292 50.2586 36.1704C52.3943 36.3663 54.1382 34.936 55.6012 33.584C59.7813 36.6472 65.7771 36.399 70.0159 33.5905C71.4267 34.4069 72.8309 35.3866 74.4899 35.6152C76.7628 36.0267 79.0357 35.3997 81.3151 35.4977C79.6888 37.0587 77.8731 38.5413 75.672 39.1944C71.8055 39.8083 67.5732 39.3773 64.5753 36.6145C60.9504 40.4092 54.4648 40.3178 50.4219 37.2415C48.3123 40.2786 43.3223 40.1676 41.2192 37.1762C39.8673 38.1951 38.3977 39.2924 36.6342 39.325C34.0348 39.3773 31.1087 39.7496 28.9403 37.973C28.1435 37.5093 27.2422 36.1769 26.3213 37.2481C23.5389 39.5732 19.7703 39.5993 16.3479 39.2401C14.0162 38.6915 12.1026 37.0913 10.522 35.367Z" fill="#2D8EC5"/>
</svg>
